<?xml version="1.0" encoding="utf-8"?>
<!-- Generator: Adobe Illustrator 16.0.0, SVG Export Plug-In . SVG Version: 6.00 Build 0)  -->
<!DOCTYPE svg PUBLIC "-//W3C//DTD SVG 1.1//EN" "http://www.w3.org/Graphics/SVG/1.1/DTD/svg11.dtd">
<svg version="1.1" id="Layer_1" xmlns="http://www.w3.org/2000/svg" xmlns:xlink="http://www.w3.org/1999/xlink" x="0px" y="0px"
	 width="64px" height="64px" viewBox="0 0 64 64" enable-background="new 0 0 64 64" xml:space="preserve">
<path fill="#FFFFFF" d="M30.842,30.978c0,0-2.543-5.127-2.543-5.877c0-0.75,2.043-6.377,2.043-6.377l6.626,0.709l0.041,1.041
	c0,0,2.252-0.542,2.584-0.625c0.336-0.083,2.252,1.125,2.252,1.125l1.625,3.334c0,0-0.584,2.042-0.709,2.459
	c-0.125,0.417-2.414,3.626-2.582,4.001s-2.629,3.085-2.92,3.294c-0.291,0.207-5.041-0.461-5.041-0.461l-1.168-2.458L30.842,30.978z"
	/>
<path fill="#FFFFFF" d="M21.037,28.55c0.157-0.156-2.032-0.688-2.032-0.688l-2.032,1.125l-3,1.75c0,0-1.313,1.47-1.469,1.657
	s-1.125,1.844-1.063,1.938s1.406,1.657,1.625,1.845c0.219,0.188,2.782,1.281,3.126,1.375s1.969,0.844,2.188,0.844
	s2.783-0.188,2.783-0.188s2.438-1.656,3-1.906s1.75-1.126,2.438-1.595c0.688-0.469,1.906-0.938,1.094-2
	c-0.813-1.063-1.688-2.313-2.782-2.751c-1.094-0.438-2.813-1.563-3.094-1.625s-0.594,0.25-0.594,0.25L21.037,28.55z"/>
<path fill="#FFFEFE" d="M9.002,44.085l2.439-3.563l3.5-1l1.938,1.252l1.5,2.624l-2,3.627c0,0-4.063,0.875-4.376,0.188
	S9.44,44.774,9.44,44.774L9.002,44.085z"/>
<path fill="#FFFEFE" d="M23.132,43.585l2.125-4.063l2.563-0.5l-0.063,3.064l-1.25,2.501c0,0-1.126,1.25-1.313,1.125
	S23.132,43.585,23.132,43.585z"/>
<path fill="#0F506D" d="M63.529,31.255c-0.855-1.013-5.977-2.236-6.383-3.119c-0.287-0.611,0.688-0.893,1.043-1.202
	c0.391-0.344,0.656-0.842,0.789-1.332c0.203-0.731,0.133-1.454-0.246-2.114c-0.406-0.688-1.066-1.188-1.846-1.379
	c-0.785-0.184-1.578-0.024-2.246,0.404c-0.816,0.502-1.307,1.407-1.209,2.369c0.039,0.407,0.199,0.914,0.082,1.319
	c-0.063,0.215-0.191,0.375-0.395,0.47c-0.215,0.104-0.406,0.111-0.637,0.064c-0.699-0.148-1.393-0.527-2.049-0.816
	c-0.943-0.416-1.895-0.832-2.879-1.153c0.24-1.959,0.434-3.93,0.656-5.89c0.102-0.899,0.35-2.175,0.287-3.059
	c-0.035-0.402-0.178-0.792-0.426-1.115c-0.277-0.365-0.664-0.671-1.102-0.809c-0.824-0.267-2.912-0.411-3.879-0.531l-8.316-1.037
	c-1.439-0.16-2.88-0.335-4.313-0.519c-0.956-0.126-2.138-0.398-3.087-0.283c-0.44,0.053-0.873,0.271-1.219,0.545
	c-0.415,0.322-0.609,0.682-0.751,1.185c-0.18,0.616-0.226,1.29-0.305,1.924l-0.391,3.063c-0.434,3.337-0.906,6.681-1.277,10.026
	c0.889,0.572,1.777,1.132,2.674,1.689c1.578,0.957,3.356,1.723,4.284,3.409c0.807,1.721,0.479,5.044,0.518,7.038l6.06,0.881
	c0.682,0.099,1.914,0.169,2.512,0.398c0.031,0.371,0.137,0.691,0.41,0.957c0.291,0.273,4.77,2.06,5.438,2.263
	c0.273,0.086,0.557,0.153,0.836,0.138c0.758-0.38,0.395-1.284,0.668-2.02c0.23-0.634,0.74-1.174,1.352-1.451
	c0.527-0.242,1.188-0.289,1.729-0.062c0.678,0.276,1.24,0.758,1.527,1.444c0.41,0.96,0.115,1.783-0.492,2.561
	c-0.172,0.214-0.381,0.44-0.479,0.694c-0.074,0.211-0.07,0.424,0.027,0.625c0.063,0.137,0.146,0.217,0.27,0.287
	c0.723,0.424,1.561,0.68,2.342,0.992c0.904,0.357,1.803,0.757,2.725,1.074c0.455,0.159,0.814,0.117,1.244-0.117
	c0.297-0.156,0.5-0.707,0.633-1.01c0.637-1.494,1.168-3.062,1.74-4.589l2.365-6.266c0.447-1.174,0.934-2.337,1.398-3.507
	c0.17-0.447,0.422-0.936,0.533-1.404C63.82,31.966,63.754,31.514,63.529,31.255z M38.785,29.595
	c-0.738,0.629-1.52,1.223-2.295,1.826c-0.609,0.48-1.246,1.044-1.943,1.404c-0.508-0.492-0.926-1.146-1.355-1.708
	c-1.476-1.948-3.163-4.067-3.751-6.489c-0.276-1.115-0.299-2.394,0.326-3.398c0.47-0.759,1.229-1.289,2.11-1.468
	c0.73-0.066,1.403-0.027,2.071,0.315c1.021,0.53,1.6,1.438,1.936,2.513c0.215-0.322,0.471-0.629,0.748-0.896
	c0.703-0.67,1.67-1.148,2.662-1.109c0.844,0.033,1.713,0.474,2.262,1.109c0.617,0.705,0.869,1.61,0.807,2.531
	C42.205,26.427,40.359,28.234,38.785,29.595z M47.621,35.583c-0.482,0.743-1.152,1.116-1.996,1.317
	c0.33-1.853,0.561-3.733,0.813-5.6c0.775,0.479,1.383,1.048,1.609,1.968C48.229,34.046,48.055,34.919,47.621,35.583z"/>
<path fill="#831435" d="M63.746,32.294c-0.111,0.469-0.363,0.957-0.533,1.404c-0.459,1.17-0.951,2.333-1.398,3.507l-2.365,6.266
	c-0.568,1.53-1.1,3.095-1.74,4.589c-0.125,0.303-0.332,0.854-0.633,1.01c-0.43,0.233-0.789,0.276-1.244,0.117
	c-0.922-0.317-1.82-0.717-2.725-1.074c-0.777-0.313-1.619-0.57-2.336-0.992c-0.125-0.07-0.209-0.15-0.275-0.287
	c-0.098-0.201-0.102-0.414-0.027-0.625c0.098-0.254,0.311-0.48,0.484-0.694c0.602-0.777,0.896-1.604,0.486-2.561
	c-0.287-0.687-0.846-1.163-1.523-1.444c-0.545-0.228-1.205-0.181-1.732,0.062c-0.607,0.277-1.115,0.82-1.352,1.451
	c-0.273,0.738,0.09,1.64-0.668,2.02c-0.279,0.016-0.563-0.052-0.828-0.138c-0.672-0.203-5.154-1.991-5.441-2.263
	c-0.273-0.266-0.383-0.586-0.41-0.957c0.477-1.016,1.965-5.607,2.389-6.015c0.662-0.617,1.662,0.651,2.248,0.94
	c0.484,0.246,0.98,0.283,1.504,0.291c0.844-0.201,1.514-0.574,2-1.317c0.436-0.664,0.607-1.537,0.422-2.314
	c-0.223-0.92-0.828-1.489-1.604-1.968c-0.52-0.332-1.037-0.236-1.619-0.293c-0.246-0.023-0.441-0.058-0.609-0.261
	c-0.117-0.325-0.082-0.686,0-1.015c0.18-0.721,1.41-4.014,1.785-4.572c0.094-0.137,0.217-0.234,0.354-0.315
	c0.387-0.221,0.789-0.201,1.205-0.08c0.98,0.322,1.932,0.739,2.875,1.155c0.66,0.289,1.354,0.667,2.053,0.816
	c0.227,0.045,0.422,0.037,0.633-0.064c0.203-0.096,0.332-0.257,0.395-0.47c0.121-0.405-0.039-0.91-0.082-1.32
	c-0.098-0.961,0.398-1.865,1.209-2.368c0.672-0.428,1.465-0.59,2.25-0.404c0.775,0.191,1.439,0.689,1.842,1.38
	c0.379,0.659,0.453,1.382,0.25,2.112c-0.137,0.493-0.402,0.989-0.793,1.333c-0.352,0.312-1.326,0.593-1.037,1.202
	c0.404,0.884,5.521,2.107,6.381,3.117C63.754,31.514,63.82,31.966,63.746,32.294z"/>
<path fill="#5F0726" d="M30.391,33.366c-0.927-1.687-2.706-2.453-4.284-3.409c-0.897-0.557-1.785-1.12-2.674-1.689l-1.48-0.903
	c0.394-0.625,0.595-1.258,0.435-1.999c-0.202-0.945-0.898-1.619-1.692-2.111c-1.682-1.036-3.458-1.934-5.139-2.98
	c0.626-1.245,0.896-2.507,0.445-3.866c-0.404-1.227-1.297-2.217-2.449-2.792c-1.166-0.576-2.512-0.664-3.74-0.24
	c-1.202,0.417-2.182,1.297-2.719,2.449c-0.545,1.147-0.592,2.392-0.156,3.583c0.105,0.294,0.246,0.58,0.396,0.855L3.75,22.352
	c-0.888,0.508-1.951,0.971-2.702,1.661c-0.461,0.418-0.823,0.965-0.973,1.577c-0.176,0.695-0.031,1.416,0.361,2.014
	c0.368,0.57,0.905,0.977,1.575,1.117c0.724,0.15,1.238-0.093,1.843-0.033c0.138,0.008,0.172,0.035,0.271,0.128
	c0.059,0.282-2.356,6.229-2.633,6.944c-0.266,0.666-0.905,1.979-0.875,2.652c0.017,0.32,0.229,0.601,0.49,0.761
	c0.227,0.138,0.523,0.176,0.783,0.199c0.869,0.086,1.784,0.024,2.656,0.028c1.169,0.003,2.344,0.05,3.514,0.034
	c0.055,1.354-0.121,3.825,0.315,4.994c0.185,0.502,0.498,0.908,0.886,1.265c1.169,1.081,2.844,1.858,4.19,2.724l2.914,1.894
	c0.514,0.338,1.046,0.725,1.597,0.998c0.531,0.27,1.149,0.416,1.746,0.383c0.554-0.031,1.135-0.172,1.633-0.414
	c1.964-0.951,3.865-2.591,5.594-3.927c0.979-0.76,2.118-1.521,2.957-2.458c1.13-1.262,0.992-2.885,1.02-4.489
	C30.87,38.41,31.198,35.087,30.391,33.366z M22.68,33.028c0.301-0.469,0.883-0.635,1.397-0.738c0.467-0.021,0.914-0.029,1.344,0.191
	c0.276,0.152,0.507,0.375,0.591,0.686c0.07,0.252,0.02,0.518-0.121,0.74c-0.282,0.43-0.801,0.588-1.272,0.701
	c-0.494,0.064-1.035,0.043-1.48-0.195c-0.266-0.143-0.5-0.361-0.582-0.658C22.484,33.497,22.537,33.249,22.68,33.028z M19.65,38.004
	c-0.43,0.045-0.893,0.023-1.293-0.158c-0.313-0.135-0.595-0.381-0.701-0.711c-0.082-0.254-0.036-0.525,0.096-0.756
	c0.289-0.484,0.867-0.664,1.381-0.786c0.444-0.033,0.882-0.02,1.292,0.188c0.287,0.137,0.539,0.375,0.639,0.682
	c0.076,0.252,0.047,0.51-0.085,0.734C20.716,37.682,20.16,37.883,19.65,38.004z M12.635,33.78c-0.049-0.256,0.02-0.516,0.168-0.729
	c0.323-0.457,0.871-0.611,1.394-0.703c0.439-0.037,0.944,0.033,1.313,0.277c0.258,0.168,0.457,0.418,0.51,0.723
	c0.051,0.254-0.023,0.52-0.172,0.729c-0.322,0.449-0.823,0.592-1.338,0.695c-0.468,0.012-0.929-0.029-1.338-0.283
	C12.912,34.333,12.7,34.087,12.635,33.78z M19.181,28.878c0.429,0.004,0.896,0.077,1.25,0.332c0.228,0.166,0.39,0.396,0.431,0.678
	c0.035,0.279-0.051,0.541-0.226,0.759c-0.387,0.495-0.964,0.621-1.551,0.705c-0.495,0.012-1.033-0.061-1.44-0.358
	c-0.214-0.16-0.367-0.39-0.404-0.654c-0.033-0.274,0.063-0.531,0.24-0.745C17.898,29.091,18.563,28.944,19.181,28.878z
	 M13.402,45.036c-0.107,0.325-0.32,0.442-0.61,0.591c-0.146,0.003-0.28,0.003-0.42-0.043c-0.505-0.149-0.929-0.66-1.171-1.098
	c-0.259-0.472-0.457-1.078-0.28-1.617c0.11-0.329,0.313-0.478,0.612-0.622c0.121,0.011,0.225,0.02,0.342,0.043
	c0.521,0.14,0.904,0.593,1.163,1.044C13.316,43.815,13.575,44.482,13.402,45.036z M17.166,44.225
	c-0.113,0.012-0.234,0.027-0.355,0.02c-0.428-0.026-0.837-0.367-1.099-0.687c-0.449-0.536-0.81-1.33-0.713-2.03
	c0.043-0.355,0.203-0.511,0.47-0.723h0.161c0.48,0.012,0.894,0.31,1.206,0.649c0.438,0.487,0.8,1.22,0.763,1.881
	C17.581,43.741,17.469,43.963,17.166,44.225z M26.568,42.904c-0.276,0.59-0.741,1.161-1.367,1.391
	c-0.125-0.004-0.284,0.008-0.398-0.043c-0.174-0.077-0.313-0.249-0.383-0.421c-0.234-0.56,0.012-1.502,0.234-2.041
	c0.289-0.676,0.691-1.215,1.388-1.507c0.138-0.009,0.283-0.009,0.414,0.042c0.208,0.078,0.349,0.263,0.418,0.472
	C27.068,41.387,26.833,42.355,26.568,42.904z"/>
<path fill="#F3AC45" d="M7.333,20.261c-0.15-0.275-0.291-0.558-0.4-0.854c-0.432-1.191-0.385-2.437,0.16-3.584
	c0.537-1.148,1.52-2.034,2.723-2.449c1.223-0.421,2.569-0.336,3.735,0.241c1.146,0.575,2.049,1.564,2.452,2.792
	c0.445,1.357,0.179,2.623-0.447,3.867c1.683,1.047,3.457,1.943,5.137,2.979c0.798,0.491,1.492,1.165,1.694,2.114
	c0.16,0.741-0.043,1.372-0.435,1.997c-1.17-0.619-2.492-1.105-3.829-0.699c-1.188,0.364-7.613,4.668-8.649,5.585
	c-0.414,0.365-0.744,0.822-0.996,1.314c-0.066,0.125-0.139,0.258-0.188,0.402c-0.45,1.447-0.265,3.905-0.231,5.469
	c-1.17,0.012-2.345-0.034-3.514-0.035c-0.873-0.003-1.788,0.052-2.656-0.027c-0.263-0.027-0.556-0.062-0.78-0.199
	c-0.264-0.164-0.474-0.44-0.493-0.761c-0.034-0.68,0.617-1.986,0.875-2.656c0.277-0.716,2.692-6.659,2.636-6.944
	c-0.101-0.089-0.132-0.116-0.273-0.126c-0.605-0.061-1.119,0.182-1.843,0.03c-0.669-0.137-1.207-0.545-1.579-1.113
	c-0.39-0.599-0.533-1.321-0.357-2.019c0.145-0.608,0.512-1.152,0.973-1.574c0.751-0.687,1.823-1.152,2.702-1.658L7.333,20.261z"/>
<path fill="#831435" d="M26.107,29.957c-0.897-0.557-1.785-1.12-2.674-1.689l-1.48-0.903c-1.167-0.617-2.492-1.107-3.826-0.701
	c-1.186,0.364-7.618,4.67-8.648,5.585c-0.418,0.369-0.748,0.822-1,1.314c-0.067,0.129-0.137,0.266-0.184,0.402
	c0.308,0.25,0.623,0.488,0.952,0.719c1.574,1.101,3.242,2.087,4.853,3.142c1.168,0.762,3.094,2.184,4.292,2.694
	c0.5,0.214,0.914,0.27,1.45,0.179c0.408-0.081,0.82-0.221,1.185-0.425c0.568-0.312,1.086-0.722,1.632-1.063
	c0.625-0.399,1.291-0.751,1.911-1.159c0.905-0.592,1.771-1.254,2.665-1.857c0.809-0.552,1.762-1.046,2.493-1.675
	c0.352-0.311,0.348-0.725,0.595-1.066c0.023-0.027,0.047-0.057,0.068-0.086C29.463,31.68,27.685,30.914,26.107,29.957z
	 M15.848,34.077c-0.322,0.449-0.823,0.592-1.338,0.695c-0.468,0.012-0.929-0.029-1.338-0.283c-0.26-0.156-0.472-0.402-0.537-0.709
	c-0.049-0.256,0.02-0.516,0.168-0.729c0.323-0.457,0.871-0.611,1.394-0.703c0.439-0.037,0.944,0.033,1.313,0.277
	c0.258,0.168,0.457,0.418,0.51,0.723C16.071,33.603,15.997,33.868,15.848,34.077z M17.241,30.338
	c-0.033-0.272,0.063-0.534,0.24-0.743c0.417-0.504,1.082-0.651,1.7-0.717c0.429,0.004,0.896,0.077,1.25,0.332
	c0.228,0.166,0.39,0.396,0.431,0.678c0.035,0.279-0.051,0.541-0.226,0.759c-0.387,0.495-0.964,0.621-1.551,0.705
	c-0.495,0.012-1.033-0.061-1.44-0.358C17.432,30.834,17.278,30.604,17.241,30.338z M20.978,37.195
	c-0.266,0.486-0.82,0.684-1.328,0.809c-0.43,0.045-0.893,0.023-1.293-0.158c-0.313-0.135-0.595-0.381-0.701-0.711
	c-0.082-0.254-0.036-0.525,0.096-0.756c0.289-0.484,0.867-0.664,1.381-0.786c0.444-0.033,0.882-0.02,1.292,0.188
	c0.287,0.137,0.539,0.375,0.639,0.682C21.14,36.709,21.11,36.973,20.978,37.195z M25.891,33.907
	c-0.282,0.426-0.801,0.586-1.272,0.701c-0.494,0.064-1.035,0.043-1.48-0.197c-0.266-0.141-0.5-0.359-0.582-0.66
	c-0.072-0.258-0.02-0.508,0.123-0.723c0.297-0.469,0.88-0.639,1.397-0.74c0.466-0.021,0.913-0.031,1.34,0.193
	c0.277,0.148,0.509,0.375,0.592,0.684C26.082,33.419,26.031,33.685,25.891,33.907z"/>
<path fill="#0F506D" d="M-28.751,38.56c-0.503-0.598-3.521-1.318-3.759-1.838c-0.17-0.359,0.404-0.525,0.613-0.709
	c0.229-0.203,0.386-0.496,0.466-0.785c0.12-0.43,0.076-0.857-0.146-1.245c-0.239-0.405-0.629-0.7-1.087-0.813
	c-0.464-0.107-0.93-0.014-1.326,0.24c-0.479,0.295-0.771,0.828-0.713,1.396c0.024,0.239,0.117,0.539,0.052,0.776
	c-0.038,0.127-0.114,0.223-0.232,0.277c-0.128,0.063-0.241,0.064-0.377,0.037c-0.412-0.086-0.82-0.311-1.207-0.48
	c-0.556-0.244-1.117-0.49-1.696-0.68c0.142-1.154,0.256-2.314,0.385-3.471c0.061-0.529,0.207-1.281,0.171-1.803
	c-0.021-0.236-0.105-0.467-0.252-0.656c-0.162-0.215-0.392-0.396-0.649-0.477c-0.485-0.158-1.716-0.242-2.284-0.313l-4.902-0.611
	c-0.848-0.094-1.696-0.198-2.541-0.306c-0.563-0.074-1.26-0.234-1.819-0.167c-0.259,0.03-0.515,0.159-0.719,0.321
	c-0.244,0.189-0.358,0.4-0.442,0.697c-0.105,0.363-0.133,0.76-0.179,1.135l-0.23,1.805c-0.256,1.967-0.534,3.938-0.753,5.908
	c0.523,0.338,1.048,0.668,1.576,0.996c0.93,0.563,1.978,1.016,2.524,2.009c0.476,1.015,0.282,2.973,0.305,4.147l3.572,0.519
	c0.402,0.06,1.127,0.101,1.48,0.235c0.018,0.217,0.081,0.407,0.241,0.563c0.17,0.16,2.81,1.213,3.206,1.333
	c0.157,0.051,0.324,0.092,0.491,0.082c0.445-0.225,0.231-0.758,0.393-1.189c0.137-0.373,0.437-0.693,0.798-0.855
	c0.31-0.145,0.698-0.172,1.018-0.037c0.4,0.164,0.731,0.447,0.9,0.852c0.24,0.566,0.068,1.053-0.29,1.51
	c-0.101,0.125-0.225,0.26-0.282,0.41c-0.045,0.123-0.04,0.248,0.016,0.366c0.036,0.081,0.087,0.13,0.16,0.171
	c0.425,0.248,0.92,0.4,1.38,0.584c0.531,0.211,1.063,0.445,1.604,0.633c0.27,0.094,0.481,0.07,0.734-0.067
	c0.177-0.093,0.297-0.417,0.374-0.597c0.374-0.881,0.688-1.805,1.022-2.703l1.396-3.692c0.264-0.692,0.551-1.377,0.824-2.065
	c0.099-0.265,0.249-0.553,0.313-0.828C-28.578,38.978-28.619,38.712-28.751,38.56z M-43.332,37.581
	c-0.438,0.371-0.896,0.722-1.353,1.075c-0.359,0.283-0.733,0.615-1.146,0.828c-0.299-0.29-0.546-0.675-0.799-1.007
	c-0.87-1.146-1.864-2.396-2.211-3.824c-0.163-0.656-0.177-1.41,0.192-2.002c0.276-0.447,0.725-0.761,1.243-0.865
	c0.43-0.039,0.826-0.018,1.221,0.187c0.602,0.313,0.942,0.848,1.141,1.479c0.127-0.188,0.278-0.371,0.442-0.527
	c0.413-0.396,0.984-0.676,1.568-0.653c0.497,0.021,1.008,0.278,1.332,0.653c0.364,0.416,0.512,0.949,0.475,1.492
	C-41.317,35.714-42.406,36.778-43.332,37.581z M-38.125,41.11c-0.286,0.438-0.68,0.656-1.177,0.775
	c0.195-1.092,0.329-2.2,0.479-3.299c0.457,0.281,0.815,0.617,0.946,1.158C-37.766,40.204-37.869,40.718-38.125,41.11z"/>
<path fill="#831435" d="M-28.623,39.171c-0.064,0.275-0.213,0.563-0.313,0.828c-0.271,0.688-0.561,1.373-0.824,2.065l-1.396,3.692
	c-0.334,0.9-0.647,1.822-1.021,2.703c-0.076,0.18-0.197,0.504-0.374,0.597c-0.254,0.137-0.464,0.161-0.734,0.067
	c-0.542-0.188-1.072-0.422-1.604-0.633c-0.457-0.184-0.953-0.337-1.378-0.585c-0.073-0.041-0.123-0.089-0.16-0.17
	c-0.058-0.118-0.063-0.243-0.016-0.366c0.057-0.15,0.183-0.285,0.282-0.41c0.356-0.457,0.529-0.944,0.289-1.51
	c-0.17-0.404-0.5-0.686-0.899-0.852c-0.321-0.135-0.709-0.105-1.02,0.037c-0.359,0.162-0.66,0.482-0.797,0.854
	c-0.162,0.435,0.053,0.966-0.394,1.19c-0.166,0.01-0.334-0.031-0.49-0.082c-0.395-0.12-3.036-1.174-3.205-1.333
	c-0.161-0.156-0.226-0.347-0.24-0.563c0.279-0.6,1.156-3.305,1.407-3.545c0.39-0.363,0.979,0.385,1.324,0.555
	c0.284,0.146,0.575,0.168,0.888,0.172c0.495-0.119,0.89-0.34,1.176-0.775c0.256-0.393,0.358-0.906,0.25-1.365
	c-0.131-0.541-0.489-0.877-0.946-1.158c-0.307-0.195-0.611-0.141-0.953-0.174c-0.146-0.014-0.262-0.035-0.359-0.152
	c-0.07-0.191-0.049-0.405,0-0.6c0.106-0.426,0.831-2.365,1.051-2.695c0.055-0.08,0.13-0.137,0.21-0.185
	c0.228-0.13,0.465-0.118,0.711-0.046c0.577,0.189,1.139,0.434,1.694,0.68c0.388,0.17,0.796,0.394,1.208,0.48
	c0.135,0.027,0.249,0.021,0.375-0.039c0.119-0.057,0.194-0.15,0.232-0.275c0.068-0.24-0.025-0.537-0.052-0.777
	c-0.058-0.567,0.236-1.102,0.714-1.396c0.397-0.253,0.863-0.348,1.327-0.238c0.456,0.111,0.848,0.406,1.086,0.813
	c0.223,0.39,0.266,0.813,0.146,1.245c-0.082,0.29-0.238,0.583-0.467,0.783c-0.207,0.187-0.783,0.351-0.613,0.709
	c0.239,0.521,3.255,1.242,3.761,1.839C-28.619,38.712-28.578,38.978-28.623,39.171z"/>
<path fill="#5F0726" d="M-48.279,39.803c-0.547-0.993-1.595-1.445-2.524-2.009c-0.528-0.328-1.053-0.66-1.576-0.996l-0.872-0.531
	c0.231-0.369,0.351-0.742,0.256-1.18c-0.119-0.557-0.529-0.953-0.997-1.243c-0.991-0.61-2.038-1.14-3.028-1.757
	c0.368-0.732,0.527-1.478,0.262-2.277c-0.238-0.725-0.765-1.307-1.443-1.645c-0.688-0.342-1.48-0.394-2.204-0.144
	c-0.708,0.246-1.285,0.765-1.602,1.442c-0.321,0.677-0.35,1.41-0.092,2.113c0.062,0.172,0.145,0.34,0.233,0.502l-2.112,1.231
	c-0.522,0.3-1.149,0.571-1.592,0.979c-0.271,0.246-0.485,0.568-0.573,0.929c-0.104,0.409-0.019,0.834,0.212,1.188
	c0.218,0.337,0.534,0.575,0.929,0.658c0.426,0.089,0.729-0.056,1.086-0.021c0.081,0.006,0.102,0.021,0.159,0.076
	c0.035,0.166-1.389,3.67-1.552,4.092c-0.156,0.394-0.533,1.166-0.516,1.563c0.01,0.188,0.136,0.353,0.289,0.448
	c0.134,0.08,0.309,0.104,0.461,0.117c0.512,0.049,1.052,0.015,1.565,0.017c0.689,0.001,1.382,0.028,2.071,0.021
	c0.032,0.797-0.071,2.254,0.187,2.943c0.108,0.294,0.293,0.534,0.521,0.744c0.689,0.639,1.676,1.096,2.47,1.604l1.717,1.117
	c0.303,0.198,0.616,0.426,0.941,0.588c0.313,0.158,0.677,0.244,1.028,0.226c0.326-0.019,0.669-0.101,0.963-0.244
	c1.157-0.56,2.277-1.526,3.297-2.313c0.576-0.447,1.248-0.896,1.742-1.446c0.666-0.745,0.584-1.701,0.601-2.646
	C-47.997,42.775-47.803,40.817-48.279,39.803z M-52.823,39.603c0.177-0.275,0.521-0.373,0.823-0.434
	c0.275-0.014,0.538-0.019,0.791,0.112c0.163,0.089,0.3,0.222,0.349,0.403c0.041,0.148,0.012,0.306-0.071,0.436
	c-0.166,0.254-0.472,0.349-0.75,0.414c-0.29,0.038-0.609,0.025-0.872-0.115c-0.156-0.084-0.294-0.213-0.342-0.389
	C-52.938,39.88-52.908,39.733-52.823,39.603z M-54.609,42.536c-0.253,0.026-0.526,0.014-0.762-0.094
	c-0.185-0.079-0.351-0.225-0.413-0.419c-0.049-0.149-0.021-0.31,0.056-0.444c0.171-0.285,0.511-0.392,0.814-0.464
	c0.262-0.02,0.52-0.012,0.762,0.111c0.169,0.081,0.317,0.221,0.376,0.401c0.045,0.146,0.028,0.301-0.05,0.433
	C-53.981,42.346-54.308,42.464-54.609,42.536z M-58.743,40.046c-0.028-0.149,0.012-0.303,0.1-0.43
	c0.19-0.271,0.513-0.359,0.821-0.414c0.259-0.021,0.556,0.021,0.773,0.164c0.152,0.098,0.27,0.245,0.301,0.426
	c0.029,0.149-0.014,0.306-0.102,0.431c-0.189,0.265-0.484,0.349-0.789,0.409c-0.275,0.007-0.547-0.018-0.788-0.168
	C-58.58,40.374-58.705,40.228-58.743,40.046z M-54.885,37.157c0.253,0.002,0.529,0.047,0.737,0.195c0.134,0.1,0.229,0.234,0.254,0.4
	c0.021,0.164-0.03,0.317-0.133,0.447c-0.229,0.291-0.568,0.365-0.914,0.416c-0.292,0.006-0.608-0.037-0.849-0.212
	c-0.126-0.094-0.217-0.229-0.238-0.386c-0.02-0.161,0.037-0.313,0.142-0.438C-55.641,37.282-55.25,37.196-54.885,37.157z
	 M-58.291,46.68c-0.063,0.192-0.188,0.262-0.359,0.349c-0.086,0.002-0.165,0.002-0.247-0.023c-0.298-0.09-0.548-0.391-0.69-0.647
	c-0.152-0.276-0.27-0.637-0.165-0.953c0.064-0.192,0.185-0.28,0.36-0.366c0.071,0.006,0.133,0.012,0.201,0.025
	c0.308,0.082,0.533,0.35,0.686,0.614C-58.341,45.962-58.189,46.354-58.291,46.68z M-56.073,46.202
	c-0.066,0.008-0.138,0.017-0.209,0.012c-0.252-0.016-0.493-0.217-0.647-0.404c-0.265-0.314-0.478-0.783-0.42-1.197
	c0.025-0.209,0.119-0.3,0.276-0.426h0.096c0.282,0.007,0.526,0.184,0.71,0.384c0.259,0.286,0.472,0.72,0.45,1.108
	C-55.828,45.917-55.894,46.048-56.073,46.202z M-50.532,45.423c-0.163,0.349-0.438,0.687-0.806,0.82
	c-0.074-0.003-0.167,0.004-0.235-0.025c-0.103-0.045-0.184-0.146-0.226-0.247c-0.138-0.33,0.007-0.886,0.139-1.204
	c0.171-0.398,0.407-0.715,0.817-0.889c0.081-0.004,0.167-0.004,0.244,0.025c0.123,0.047,0.206,0.155,0.246,0.276
	C-50.238,44.529-50.376,45.101-50.532,45.423z"/>
<path fill="#F3AC45" d="M-61.867,32.081c-0.089-0.164-0.172-0.33-0.236-0.504c-0.255-0.703-0.227-1.437,0.095-2.113
	c0.316-0.676,0.896-1.197,1.604-1.442c0.721-0.248,1.514-0.196,2.201,0.144c0.676,0.338,1.207,0.922,1.445,1.646
	c0.262,0.8,0.104,1.546-0.264,2.278c0.991,0.617,2.037,1.146,3.027,1.756c0.47,0.289,0.879,0.687,0.998,1.244
	c0.095,0.438-0.025,0.811-0.256,1.178c-0.69-0.363-1.469-0.65-2.257-0.41c-0.698,0.211-4.485,2.748-5.095,3.288
	c-0.244,0.215-0.438,0.483-0.587,0.774c-0.039,0.074-0.082,0.151-0.11,0.236c-0.266,0.854-0.156,2.301-0.137,3.223
	c-0.689,0.008-1.382-0.02-2.071-0.021c-0.514-0.002-1.054,0.031-1.565-0.017c-0.154-0.016-0.327-0.036-0.459-0.117
	c-0.155-0.096-0.279-0.26-0.291-0.447c-0.02-0.4,0.364-1.172,0.516-1.566c0.163-0.42,1.587-3.924,1.554-4.092
	c-0.06-0.052-0.078-0.068-0.161-0.074c-0.356-0.035-0.66,0.106-1.086,0.02c-0.395-0.082-0.711-0.322-0.931-0.658
	c-0.229-0.352-0.314-0.777-0.21-1.189c0.085-0.357,0.302-0.678,0.573-0.928c0.442-0.404,1.074-0.678,1.592-0.977L-61.867,32.081z"/>
<path fill="#831435" d="M-50.803,37.794c-0.528-0.328-1.053-0.66-1.576-0.996l-0.872-0.531c-0.688-0.364-1.469-0.654-2.255-0.412
	c-0.699,0.213-4.489,2.751-5.097,3.29c-0.246,0.217-0.44,0.483-0.589,0.774c-0.04,0.076-0.08,0.156-0.108,0.236
	c0.182,0.147,0.367,0.287,0.561,0.424c0.929,0.648,1.911,1.229,2.86,1.852c0.688,0.449,1.823,1.288,2.529,1.588
	c0.294,0.125,0.538,0.16,0.854,0.104c0.24-0.047,0.483-0.127,0.698-0.248c0.334-0.184,0.64-0.426,0.962-0.627
	c0.368-0.235,0.761-0.441,1.126-0.684c0.533-0.35,1.043-0.738,1.57-1.095c0.477-0.325,1.038-0.615,1.47-0.986
	c0.207-0.183,0.205-0.427,0.351-0.629c0.014-0.017,0.027-0.033,0.04-0.05C-48.826,38.81-49.874,38.357-50.803,37.794z
	 M-56.849,40.223c-0.189,0.265-0.484,0.349-0.789,0.409c-0.275,0.007-0.547-0.018-0.788-0.168c-0.153-0.09-0.278-0.236-0.316-0.418
	c-0.028-0.149,0.012-0.303,0.1-0.43c0.19-0.271,0.513-0.359,0.821-0.414c0.259-0.021,0.556,0.021,0.773,0.164
	c0.152,0.098,0.27,0.245,0.301,0.426C-56.718,39.942-56.761,40.099-56.849,40.223z M-56.028,38.019
	c-0.02-0.162,0.037-0.314,0.142-0.438c0.245-0.299,0.637-0.385,1.001-0.424c0.253,0.002,0.529,0.047,0.737,0.195
	c0.134,0.1,0.229,0.234,0.254,0.4c0.021,0.164-0.03,0.317-0.133,0.447c-0.229,0.291-0.568,0.365-0.914,0.416
	c-0.292,0.006-0.608-0.037-0.849-0.212C-55.916,38.31-56.006,38.175-56.028,38.019z M-53.826,42.059
	c-0.157,0.287-0.483,0.403-0.783,0.478c-0.253,0.026-0.526,0.014-0.762-0.094c-0.185-0.079-0.351-0.225-0.413-0.419
	c-0.049-0.149-0.021-0.31,0.056-0.444c0.171-0.285,0.511-0.392,0.814-0.464c0.262-0.02,0.52-0.012,0.762,0.111
	c0.169,0.081,0.317,0.221,0.376,0.401C-53.731,41.773-53.748,41.929-53.826,42.059z M-50.931,40.122
	c-0.166,0.252-0.472,0.347-0.75,0.414c-0.29,0.037-0.609,0.023-0.872-0.117c-0.156-0.082-0.294-0.211-0.342-0.39
	c-0.043-0.151-0.013-0.298,0.072-0.427c0.175-0.275,0.519-0.375,0.823-0.436c0.274-0.013,0.537-0.019,0.789,0.114
	c0.164,0.087,0.301,0.222,0.35,0.401C-50.819,39.833-50.848,39.991-50.931,40.122z"/>
</svg>
