<?xml version="1.0" encoding="utf-8"?>
<!-- Generator: Adobe Illustrator 16.0.0, SVG Export Plug-In . SVG Version: 6.00 Build 0)  -->
<!DOCTYPE svg PUBLIC "-//W3C//DTD SVG 1.1//EN" "http://www.w3.org/Graphics/SVG/1.1/DTD/svg11.dtd">
<svg version="1.1" id="Layer_1" xmlns="http://www.w3.org/2000/svg" xmlns:xlink="http://www.w3.org/1999/xlink" x="0px" y="0px"
	 width="107px" height="24px" viewBox="0 0 107 24" enable-background="new 0 0 107 24" xml:space="preserve">
<path fill="#0B4F6C" d="M105.854,11.955c-0.502-0.597-3.521-1.317-3.758-1.838c-0.171-0.359,0.403-0.525,0.612-0.709
	c0.229-0.202,0.386-0.495,0.466-0.785c0.12-0.43,0.076-0.857-0.146-1.245c-0.238-0.406-0.629-0.701-1.086-0.813
	c-0.465-0.109-0.931-0.014-1.326,0.239c-0.479,0.295-0.771,0.829-0.713,1.396c0.023,0.24,0.117,0.539,0.052,0.778
	c-0.038,0.126-0.114,0.221-0.231,0.277c-0.129,0.062-0.242,0.065-0.377,0.038c-0.412-0.087-0.82-0.311-1.207-0.48
	c-0.557-0.245-1.117-0.49-1.697-0.68c0.143-1.155,0.257-2.315,0.386-3.471c0.062-0.53,0.207-1.282,0.171-1.803
	c-0.021-0.237-0.105-0.467-0.252-0.657c-0.162-0.215-0.393-0.396-0.648-0.476c-0.486-0.157-1.717-0.243-2.285-0.313L88.909,0.8
	c-0.849-0.094-1.696-0.198-2.541-0.306c-0.563-0.074-1.261-0.234-1.819-0.167c-0.259,0.031-0.515,0.16-0.719,0.321
	c-0.244,0.19-0.357,0.401-0.441,0.698c-0.105,0.363-0.134,0.76-0.18,1.134l-0.23,1.805c-0.256,1.966-0.533,3.937-0.752,5.909
	c0.522,0.337,1.047,0.667,1.575,0.995c0.931,0.564,1.978,1.016,2.524,2.009c0.476,1.015,0.281,2.973,0.305,4.147l3.572,0.519
	c0.402,0.06,1.127,0.101,1.48,0.235c0.018,0.217,0.08,0.407,0.24,0.563c0.17,0.16,2.811,1.213,3.206,1.333
	c0.157,0.051,0.324,0.092,0.491,0.082c0.445-0.225,0.23-0.758,0.393-1.189c0.137-0.373,0.438-0.693,0.799-0.855
	c0.31-0.145,0.697-0.172,1.018-0.037c0.4,0.164,0.73,0.447,0.9,0.852c0.239,0.566,0.067,1.053-0.291,1.51
	c-0.101,0.125-0.225,0.26-0.281,0.41c-0.045,0.123-0.04,0.248,0.016,0.366c0.036,0.081,0.087,0.13,0.16,0.171
	c0.425,0.248,0.92,0.4,1.38,0.584c0.531,0.211,1.063,0.445,1.604,0.633c0.27,0.094,0.48,0.07,0.733-0.067
	c0.177-0.093,0.298-0.417,0.374-0.597c0.374-0.881,0.688-1.805,1.021-2.703l1.396-3.692c0.264-0.692,0.551-1.377,0.824-2.065
	c0.1-0.265,0.249-0.553,0.313-0.828C106.027,12.374,105.986,12.108,105.854,11.955z M91.273,10.976
	c-0.438,0.371-0.896,0.722-1.354,1.076c-0.359,0.283-0.732,0.615-1.146,0.828c-0.299-0.29-0.545-0.674-0.799-1.007
	c-0.869-1.147-1.863-2.397-2.211-3.824c-0.162-0.658-0.177-1.411,0.192-2.003c0.276-0.448,0.726-0.76,1.243-0.865
	c0.43-0.039,0.826-0.017,1.221,0.186c0.602,0.313,0.941,0.848,1.141,1.48c0.127-0.189,0.278-0.371,0.442-0.528
	c0.413-0.395,0.983-0.676,1.567-0.653c0.498,0.02,1.009,0.279,1.332,0.653c0.365,0.416,0.513,0.949,0.476,1.492
	C93.288,9.109,92.199,10.174,91.273,10.976z M96.48,14.506c-0.287,0.438-0.681,0.656-1.178,0.775c0.195-1.092,0.329-2.2,0.479-3.299
	c0.456,0.282,0.815,0.618,0.946,1.159C96.839,13.6,96.736,14.113,96.48,14.506z"/>
<path fill="#820933" d="M105.982,12.566c-0.064,0.275-0.213,0.563-0.313,0.828c-0.271,0.688-0.562,1.373-0.823,2.065l-1.396,3.692
	c-0.334,0.9-0.647,1.822-1.021,2.703c-0.076,0.18-0.197,0.504-0.373,0.597c-0.255,0.137-0.465,0.161-0.734,0.067
	c-0.543-0.188-1.072-0.422-1.604-0.633c-0.457-0.184-0.952-0.337-1.378-0.585c-0.072-0.04-0.123-0.089-0.16-0.17
	c-0.058-0.118-0.063-0.243-0.016-0.366c0.057-0.15,0.184-0.285,0.281-0.41c0.356-0.457,0.529-0.944,0.289-1.51
	c-0.17-0.404-0.5-0.686-0.898-0.852c-0.32-0.135-0.709-0.105-1.02,0.037c-0.359,0.162-0.66,0.482-0.797,0.855
	c-0.162,0.434,0.053,0.965-0.395,1.189c-0.166,0.01-0.334-0.031-0.49-0.082c-0.395-0.12-3.035-1.174-3.205-1.333
	c-0.16-0.156-0.226-0.347-0.24-0.563c0.279-0.6,1.156-3.305,1.408-3.545c0.389-0.363,0.979,0.385,1.323,0.555
	c0.284,0.146,0.575,0.168,0.888,0.172c0.495-0.119,0.891-0.34,1.176-0.775c0.256-0.393,0.358-0.906,0.25-1.365
	c-0.131-0.541-0.488-0.875-0.945-1.159c-0.307-0.196-0.611-0.14-0.953-0.174c-0.146-0.013-0.262-0.034-0.359-0.152
	c-0.07-0.192-0.049-0.405,0-0.599c0.106-0.425,0.832-2.365,1.051-2.695c0.056-0.08,0.131-0.138,0.211-0.185
	c0.228-0.13,0.465-0.118,0.711-0.046c0.576,0.189,1.139,0.435,1.693,0.68c0.389,0.169,0.797,0.394,1.209,0.48
	c0.135,0.027,0.248,0.023,0.375-0.038c0.118-0.056,0.193-0.151,0.231-0.276c0.067-0.239-0.024-0.537-0.052-0.778
	c-0.059-0.567,0.236-1.1,0.714-1.396c0.397-0.252,0.862-0.348,1.327-0.238c0.455,0.112,0.848,0.407,1.086,0.813
	c0.223,0.388,0.266,0.815,0.146,1.245c-0.081,0.29-0.237,0.583-0.467,0.785c-0.207,0.185-0.783,0.35-0.612,0.709
	c0.238,0.521,3.254,1.241,3.76,1.837C105.986,12.108,106.027,12.374,105.982,12.566z"/>
<path fill="#5F0726" d="M86.326,13.198c-0.547-0.993-1.596-1.445-2.524-2.009c-0.528-0.328-1.053-0.659-1.575-0.995l-0.873-0.533
	c0.231-0.368,0.352-0.741,0.256-1.178C81.49,7.927,81.08,7.53,80.611,7.239c-0.99-0.61-2.037-1.139-3.027-1.756
	c0.368-0.733,0.527-1.478,0.262-2.278c-0.238-0.724-0.765-1.307-1.443-1.645c-0.688-0.34-1.479-0.392-2.203-0.142
	c-0.708,0.246-1.285,0.765-1.602,1.443c-0.322,0.677-0.351,1.41-0.093,2.113c0.062,0.173,0.146,0.341,0.233,0.503l-2.112,1.231
	c-0.522,0.299-1.149,0.572-1.592,0.979c-0.271,0.246-0.485,0.569-0.573,0.929c-0.104,0.411-0.02,0.834,0.212,1.187
	c0.218,0.336,0.534,0.576,0.929,0.658c0.426,0.089,0.729-0.055,1.086-0.02c0.082,0.006,0.103,0.022,0.16,0.076
	c0.034,0.167-1.39,3.67-1.553,4.092c-0.156,0.394-0.533,1.166-0.516,1.563c0.01,0.188,0.136,0.353,0.289,0.448
	c0.134,0.08,0.309,0.104,0.461,0.117c0.512,0.049,1.052,0.015,1.564,0.017c0.689,0.001,1.383,0.028,2.071,0.021
	c0.032,0.798-0.071,2.254,0.187,2.943c0.108,0.295,0.293,0.534,0.521,0.744c0.689,0.639,1.676,1.096,2.47,1.604l1.718,1.117
	c0.303,0.198,0.615,0.426,0.94,0.588c0.313,0.158,0.677,0.244,1.028,0.226c0.326-0.019,0.669-0.101,0.963-0.244
	c1.156-0.56,2.277-1.526,3.297-2.313c0.576-0.447,1.248-0.896,1.742-1.446c0.666-0.745,0.584-1.701,0.601-2.646
	C86.607,16.171,86.802,14.213,86.326,13.198z M81.782,12.998c0.177-0.275,0.521-0.373,0.823-0.434
	c0.274-0.014,0.537-0.019,0.791,0.112c0.162,0.089,0.299,0.222,0.349,0.403c0.041,0.148,0.012,0.306-0.071,0.436
	c-0.166,0.254-0.472,0.349-0.75,0.414c-0.29,0.038-0.609,0.025-0.872-0.115c-0.155-0.084-0.294-0.213-0.342-0.389
	C81.667,13.275,81.697,13.129,81.782,12.998z M79.996,15.932c-0.253,0.026-0.525,0.014-0.762-0.094
	c-0.186-0.079-0.352-0.225-0.414-0.419c-0.049-0.149-0.021-0.31,0.057-0.444c0.171-0.285,0.512-0.392,0.814-0.464
	c0.262-0.02,0.52-0.012,0.762,0.111c0.169,0.081,0.316,0.221,0.376,0.401c0.045,0.146,0.028,0.301-0.05,0.433
	C80.624,15.741,80.297,15.859,79.996,15.932z M75.861,13.441c-0.027-0.149,0.013-0.303,0.101-0.43
	c0.19-0.271,0.513-0.359,0.821-0.414c0.259-0.021,0.556,0.021,0.773,0.164c0.151,0.098,0.27,0.245,0.301,0.426
	c0.029,0.149-0.015,0.306-0.103,0.431c-0.188,0.265-0.483,0.349-0.789,0.409c-0.274,0.007-0.547-0.018-0.788-0.168
	C76.025,13.77,75.9,13.623,75.861,13.441z M79.721,10.553c0.252,0.002,0.528,0.046,0.736,0.196c0.134,0.099,0.229,0.234,0.254,0.4
	c0.021,0.164-0.029,0.318-0.133,0.448c-0.229,0.291-0.568,0.365-0.914,0.415c-0.292,0.006-0.607-0.036-0.85-0.211
	c-0.125-0.094-0.217-0.229-0.237-0.385c-0.021-0.162,0.036-0.314,0.142-0.438C78.964,10.678,79.355,10.592,79.721,10.553z
	 M76.314,20.075c-0.063,0.192-0.188,0.262-0.359,0.349c-0.086,0.002-0.165,0.002-0.247-0.023c-0.298-0.09-0.548-0.391-0.69-0.647
	c-0.151-0.276-0.27-0.637-0.164-0.953c0.063-0.192,0.185-0.28,0.359-0.366c0.071,0.006,0.133,0.012,0.201,0.025
	c0.309,0.082,0.533,0.35,0.686,0.614C76.264,19.357,76.416,19.749,76.314,20.075z M78.532,19.598
	c-0.066,0.008-0.138,0.017-0.209,0.012c-0.253-0.016-0.493-0.217-0.647-0.404c-0.265-0.314-0.478-0.783-0.42-1.197
	c0.025-0.209,0.119-0.3,0.276-0.426h0.096c0.282,0.007,0.526,0.184,0.71,0.384c0.26,0.286,0.473,0.72,0.45,1.108
	C78.777,19.313,78.711,19.443,78.532,19.598z M84.073,18.818c-0.163,0.349-0.437,0.687-0.806,0.82
	c-0.074-0.003-0.168,0.004-0.235-0.025c-0.103-0.045-0.185-0.146-0.226-0.247c-0.139-0.33,0.006-0.886,0.139-1.204
	c0.171-0.398,0.406-0.715,0.816-0.889c0.081-0.004,0.168-0.004,0.244,0.025c0.123,0.047,0.206,0.155,0.246,0.276
	C84.367,17.925,84.229,18.496,84.073,18.818z"/>
<path fill="#F4AC45" d="M72.738,5.476c-0.09-0.163-0.172-0.329-0.236-0.504c-0.255-0.702-0.227-1.436,0.096-2.112
	c0.315-0.677,0.896-1.199,1.604-1.444c0.721-0.248,1.514-0.197,2.201,0.143c0.676,0.338,1.207,0.922,1.445,1.646
	c0.262,0.8,0.104,1.545-0.265,2.278c0.991,0.617,2.037,1.146,3.026,1.756c0.471,0.289,0.879,0.687,0.998,1.245
	c0.096,0.437-0.024,0.809-0.256,1.177c-0.689-0.364-1.469-0.651-2.256-0.411C78.396,9.462,74.609,12,74,12.54
	c-0.244,0.215-0.438,0.483-0.587,0.774c-0.039,0.074-0.082,0.151-0.11,0.236c-0.266,0.854-0.156,2.301-0.137,3.223
	c-0.689,0.008-1.382-0.02-2.07-0.021c-0.515-0.002-1.055,0.031-1.566-0.017c-0.153-0.016-0.326-0.036-0.459-0.117
	c-0.154-0.096-0.278-0.26-0.291-0.447c-0.02-0.4,0.365-1.172,0.517-1.566c0.163-0.42,1.587-3.923,1.554-4.091
	c-0.06-0.052-0.078-0.068-0.16-0.075c-0.356-0.035-0.66,0.108-1.086,0.02c-0.396-0.082-0.711-0.321-0.932-0.657
	c-0.229-0.353-0.314-0.778-0.21-1.189c0.085-0.359,0.302-0.679,0.573-0.929c0.441-0.404,1.074-0.678,1.592-0.976L72.738,5.476z"/>
<path fill="#820933" d="M83.802,11.189c-0.528-0.328-1.053-0.659-1.575-0.995l-0.873-0.533c-0.688-0.364-1.469-0.653-2.254-0.412
	C78.4,9.463,74.609,12,74.002,12.54c-0.246,0.217-0.439,0.483-0.589,0.774c-0.04,0.076-0.08,0.156-0.108,0.236
	c0.182,0.147,0.367,0.287,0.562,0.424c0.929,0.648,1.911,1.229,2.86,1.852c0.688,0.449,1.822,1.288,2.528,1.588
	c0.294,0.125,0.538,0.16,0.854,0.104c0.24-0.047,0.482-0.127,0.697-0.248c0.334-0.184,0.641-0.426,0.963-0.627
	c0.367-0.235,0.76-0.441,1.125-0.684c0.533-0.35,1.043-0.738,1.57-1.095c0.477-0.325,1.038-0.615,1.471-0.986
	c0.207-0.183,0.205-0.427,0.351-0.629c0.014-0.017,0.026-0.033,0.04-0.05C85.779,12.206,84.73,11.753,83.802,11.189z M77.756,13.618
	c-0.189,0.265-0.484,0.349-0.789,0.409c-0.275,0.007-0.547-0.018-0.787-0.168c-0.154-0.09-0.279-0.236-0.316-0.418
	c-0.028-0.149,0.012-0.303,0.1-0.43c0.189-0.271,0.514-0.359,0.821-0.414c0.259-0.021,0.556,0.021,0.772,0.164
	c0.152,0.098,0.271,0.245,0.301,0.426C77.887,13.338,77.844,13.494,77.756,13.618z M78.577,11.414
	c-0.021-0.162,0.037-0.314,0.142-0.438c0.245-0.297,0.637-0.384,1.002-0.423c0.252,0.002,0.528,0.046,0.736,0.196
	c0.134,0.099,0.229,0.234,0.254,0.4c0.021,0.164-0.029,0.318-0.133,0.448c-0.229,0.291-0.568,0.365-0.914,0.415
	c-0.292,0.006-0.607-0.036-0.85-0.211C78.689,11.706,78.6,11.571,78.577,11.414z M80.779,15.454
	c-0.157,0.287-0.483,0.403-0.783,0.478c-0.253,0.026-0.525,0.014-0.762-0.094c-0.186-0.079-0.352-0.225-0.414-0.419
	c-0.049-0.149-0.021-0.31,0.057-0.444c0.171-0.285,0.512-0.392,0.814-0.464c0.262-0.02,0.52-0.012,0.762,0.111
	c0.169,0.081,0.316,0.221,0.376,0.401C80.874,15.169,80.857,15.324,80.779,15.454z M83.674,13.518
	c-0.166,0.252-0.472,0.347-0.75,0.414c-0.29,0.037-0.609,0.023-0.872-0.117c-0.155-0.082-0.294-0.211-0.342-0.39
	c-0.043-0.151-0.013-0.298,0.072-0.427c0.175-0.275,0.519-0.375,0.823-0.436c0.273-0.013,0.537-0.019,0.789,0.114
	c0.164,0.087,0.301,0.222,0.35,0.401C83.786,13.229,83.757,13.387,83.674,13.518z"/>
<path fill="#0B4F6C" d="M35.628,5.962c-0.459-2.626-2.962-4.379-5.584-3.907c-2.604,0.469-4.341,2.949-3.887,5.555
	c0.452,2.605,2.925,4.355,5.533,3.915C34.319,11.083,36.084,8.588,35.628,5.962z M31.355,9.649
	c-1.574,0.256-3.056-0.816-3.308-2.393c-0.251-1.575,0.821-3.058,2.396-3.305c1.571-0.248,3.051,0.822,3.303,2.396
	C33.996,7.919,32.925,9.398,31.355,9.649z"/>
<path fill="#0B4F6C" d="M23.75,3.672c-1.501-1.518-3.528-1.465-5.5-1.463c-0.449,0-0.898-0.005-1.348,0.004
	c-0.105,0.398-0.127,8.798-0.016,9.051c0.025,0.057,0.094,0.061,0.153,0.078c0.42,0.101,0.975,0.039,1.408,0.039
	c1.558-0.006,3.081,0.05,4.446-0.831c0.214-0.142,0.418-0.301,0.608-0.469c0.94-0.927,1.418-1.969,1.425-3.298
	C24.932,5.613,24.581,4.515,23.75,3.672z M22.092,8.858c-0.981,0.896-2.11,0.791-3.353,0.778c-0.016-1.189-0.003-2.38-0.003-3.572
	c-0.002-0.625-0.054-1.307,0.013-1.921c0.006-0.077,0.028-0.122,0.073-0.178c1.113-0.05,2.352-0.061,3.23,0.742
	c0.559,0.508,0.842,1.192,0.875,1.938C22.966,7.509,22.683,8.225,22.092,8.858z"/>
<path fill="#0B4F6C" d="M68.327,11.08c-0.091-0.568-0.752-2.024-0.992-2.652c-0.726-1.891-1.38-3.838-2.172-5.698
	c-0.069-0.167-0.138-0.329-0.271-0.451c-0.521-0.17-1.244-0.075-1.795-0.063c-0.144,0.127-0.215,0.254-0.293,0.426
	c-0.293,0.663-0.523,1.368-0.779,2.045l-1.055,2.755l-0.855,2.243c-0.18,0.481-0.41,0.988-0.512,1.495l0.023,0.028L59.6,11.237
	c0.246,0.245,0.765,0.186,1.09,0.186c0.314,0.003,0.644,0.039,0.883-0.207c0.354-0.368,0.447-1.111,0.681-1.572
	c0.888-0.009,1.776-0.009,2.669-0.005c0.255,0.003,0.514-0.006,0.77,0.027c0.238,0.492,0.386,1.53,0.94,1.713
	c0.361,0.119,1.3,0.084,1.638-0.07C68.339,11.215,68.348,11.202,68.327,11.08z M64.043,7.956l-1.261-0.002
	c0.348-1.022,0.731-2.065,1.165-3.057c0.255,0.189,1.051,2.575,1.212,3.047C64.79,7.959,64.416,7.953,64.043,7.956z"/>
<path fill="#0B4F6C" d="M7.646,2.219C8.012,2.208,8.862,2.1,9.162,2.282C9.277,2.351,9.319,2.44,9.343,2.568
	c0.07,0.381,0.02,0.827,0.017,1.215L9.35,6.52C9.347,7.2,9.268,7.988,9.435,8.652c0.095,0.381,0.271,0.674,0.62,0.868
	c0.522,0.289,1.305,0.311,1.865,0.12c0.419-0.144,0.729-0.432,0.884-0.849c0.265-0.718,0.136-4.192,0.136-5.241
	c0-0.371-0.06-0.913,0.113-1.252C13.267,2.186,13.517,2.2,13.754,2.2c0.27,0,0.769-0.07,0.952,0.144
	c0.25,0.289,0.117,1.477,0.113,1.89c-0.002,1.194,0.128,3.781-0.102,4.788c-0.098,0.444-0.296,0.861-0.578,1.218
	c-0.606,0.773-1.538,1.178-2.499,1.282c-1.052,0.11-2.192-0.073-3.031-0.755C7.947,10.228,7.59,9.48,7.503,8.64
	C7.385,7.512,7.48,6.321,7.478,5.187C7.475,4.333,7.371,3.355,7.497,2.513C7.513,2.388,7.568,2.313,7.646,2.219z"/>
<path fill="#0B4F6C" d="M44.162,2.215c0.789-0.03,5.045-0.093,5.508,0.067c0.033,0.046,0.063,0.09,0.081,0.144
	c0.112,0.309,0.067,1.098-0.073,1.403c-0.252,0.256-3.103,0.129-3.664,0.146c-0.036,0.66-0.026,1.338,0.005,1.999
	c0.819,0.054,2.261-0.128,2.974,0.077c0.102,0.078,0.142,0.16,0.165,0.284c0.05,0.265,0.071,0.936-0.106,1.145
	c-0.209,0.245-2.559,0.149-3.047,0.153l-0.006,0.671l0.004,1.332c0.74-0.001,1.482,0.014,2.223,0.007
	c0.375-0.001,0.76-0.062,1.135-0.032c0.121,0.009,0.253,0.036,0.355,0.109c0.103,0.072,0.148,0.182,0.172,0.299
	c0.058,0.296,0.049,1.002-0.115,1.257c-0.234,0.099-4.838,0.084-5.4,0.037c-0.118-0.009-0.154-0.04-0.231-0.127
	c-0.079-0.472-0.04-0.981-0.04-1.46V7.279l0.001-3.188C44.105,3.482,44.058,2.818,44.162,2.215z"/>
<path fill="#0B4F6C" d="M55.564,2.047c0.15-0.01,0.305-0.007,0.453-0.002c1.039,0.023,2.125,0.425,2.844,1.188
	c-0.271,0.488-0.666,0.925-1.018,1.359c-0.355-0.223-0.701-0.447-1.098-0.593c-0.66-0.247-1.412-0.248-2.059,0.061
	c-0.692,0.333-1.197,0.96-1.437,1.688c-0.271,0.828-0.212,1.828,0.188,2.606c0.325,0.626,0.874,1.115,1.555,1.321
	c1.055,0.319,1.933-0.056,2.857-0.542C57.98,9.27,58.1,9.422,58.216,9.57c0.195,0.243,0.378,0.496,0.563,0.746
	c-0.598,0.706-1.625,1.124-2.531,1.201c-1.346,0.116-2.615-0.231-3.653-1.109c-0.927-0.787-1.476-1.855-1.565-3.07
	c-0.1-1.344,0.225-2.677,1.131-3.703C53.05,2.626,54.254,2.135,55.564,2.047z"/>
<path fill="#0B4F6C" d="M47.364,19.191c0.686-0.371,1.247-0.769,1.478-1.558c0.231-0.811,0.15-1.948-0.273-2.682
	c-0.378-0.661-1.015-1.07-1.742-1.259c-1.081-0.276-3.193-0.182-4.358-0.123c-0.066,0.109-0.087,0.17-0.1,0.299
	c-0.121,1.266-0.016,2.674-0.016,3.949c0,1.277-0.125,3.192,0.061,4.414l0.043-0.08l-0.021,0.154
	c0.395,0.18,1.214,0.108,1.643,0.031c0.154-0.145,0.149-0.291,0.158-0.497c0.029-0.848-0.017-1.694,0.007-2.545
	c0.378-0.005,0.756-0.021,1.131-0.019c0.429,0.725,1.298,2.593,1.843,3.08l0.183,0.027c0.52,0.008,1.278,0.104,1.759-0.066
	C49.224,21.811,47.719,19.732,47.364,19.191z M46.715,17.322c-0.708,0.462-1.667,0.359-2.473,0.332c-0.02-0.797-0.003-1.6,0-2.401
	c0.74-0.019,1.843-0.146,2.448,0.343c0.233,0.186,0.336,0.45,0.367,0.744C47.096,16.77,46.983,16.995,46.715,17.322z"/>
<path fill="#0B4F6C" d="M21.286,13.566c0.422-0.01,0.872-0.051,1.29-0.016c0.21,0.018,0.331,0.121,0.473,0.266
	c0.518,0.531,0.94,1.242,1.374,1.847c0.817,1.134,1.642,2.282,2.54,3.354c0.111-1.186,0.034-2.427,0.031-3.613
	c-0.001-0.541-0.063-1.187,0.086-1.707c0.063-0.049,0.122-0.088,0.204-0.104c0.321-0.071,1.24-0.097,1.522,0.065
	c0.045,0.066,0.065,0.115,0.076,0.191c0.149,1.047,0.024,3.086,0.024,4.232c0,1.271,0.123,2.641-0.006,3.9
	c-0.018,0.172-0.07,0.267-0.176,0.4c-0.489,0.01-0.979,0.004-1.471,0.004c-0.548-0.516-0.989-1.24-1.433-1.85
	c-0.896-1.217-1.775-2.452-2.707-3.641c-0.057,1.476,0.135,3.383-0.029,4.779c-0.019,0.164-0.053,0.5-0.209,0.602
	c-0.273,0.179-1.09,0.189-1.402,0.108c-0.088-0.079-0.146-0.155-0.182-0.269c-0.216-0.665-0.061-3.402-0.072-4.268
	c-0.012-1.231-0.11-2.5-0.053-3.731C21.174,13.911,21.192,13.754,21.286,13.566L21.286,13.566z"/>
<path fill="#0B4F6C" d="M36.354,2.215c0.624-0.039,6.148-0.054,6.338,0.072c0.094,0.137,0.124,0.249,0.134,0.414
	c0.022,0.294,0.093,0.877-0.143,1.104c-0.31,0.296-1.637,0.125-2.105,0.151l-0.084,0.006c-0.109,1.708-0.028,3.459-0.021,5.173
	c0.004,0.487,0.016,0.977,0.008,1.464c-0.003,0.233-0.003,0.515-0.179,0.681c-0.284,0.075-1.274,0.089-1.564,0.021
	c-0.095-0.104-0.102-0.188-0.118-0.326c-0.06-0.559-0.012-1.17-0.011-1.732l0.006-3.458c0.003-0.496,0.111-1.316-0.08-1.763
	C38.196,3.751,37.11,4.07,36.618,3.94c-0.132-0.036-0.242-0.105-0.308-0.228C36.13,3.376,36.239,2.558,36.354,2.215z"/>
<path fill="#0B4F6C" d="M57.244,13.563c-0.617-0.021-1.23-0.021-1.846,0c-0.487,0.783-0.963,2.404-1.309,3.315
	c-0.619,1.638-1.333,3.272-1.876,4.938c-0.049,0.156-0.12,0.307-0.087,0.471c0.38,0.232,1.438,0.1,1.9,0.096
	c0.291-0.561,0.426-1.182,0.703-1.744l2.488,0.012c0.26,0.013,0.522,0.013,0.781,0.025c0.188,0.471,0.343,1.409,0.824,1.639
	c0.313,0.148,1.294,0.158,1.613,0.026c0.063-0.03,0.082-0.049,0.125-0.093C60.48,21.598,57.682,14.348,57.244,13.563z
	 M56.338,19.049l-1.109-0.006c0.309-0.958,0.688-1.907,1.082-2.832c0.439,0.587,0.842,2.081,1.09,2.829L56.338,19.049z"/>
<path fill="#0B4F6C" d="M1.24,2.215c0.356-0.007,1.367-0.123,1.627,0.072c0.187,0.14,0.054,6.466,0.117,7.28l0.004,0.068
	C3.69,9.682,5.745,9.508,6.233,9.744c0.081,0.14,0.081,0.27,0.086,0.427c0.013,0.391,0.104,0.912-0.181,1.21
	c-0.02,0.003-0.042,0.007-0.063,0.008c-0.58,0.075-1.238,0.021-1.826,0.021c-0.87,0.001-1.783,0.058-2.648-0.016
	c-0.152-0.012-0.315-0.021-0.442-0.115c-0.051-0.141-0.066-0.275-0.073-0.425c-0.027-0.496,0.003-1.003,0.006-1.501L1.084,6.301
	L1.083,3.845c0-0.438-0.029-0.901,0.016-1.337C1.112,2.376,1.151,2.311,1.24,2.215L1.24,2.215z"/>
<path fill="#0B4F6C" d="M12.085,13.568c0.742-0.026,5.02-0.104,5.295,0.1c0.075,0.059,0.11,0.168,0.12,0.259
	c0.048,0.351,0.07,0.945-0.143,1.238c-0.418,0.221-2.768,0.106-3.44,0.112c-0.01,0.644,0,1.289,0,1.932
	c0.503,0.016,2.566-0.121,2.884,0.135c0.063,0.053,0.087,0.178,0.096,0.256c0.037,0.313,0.077,0.928-0.129,1.178
	c-0.635,0.26-2.1,0.103-2.836,0.095l-0.01,0.78l0.005,1.082c0.754,0.022,3.036-0.123,3.59,0.064
	c0.053,0.068,0.079,0.115,0.095,0.197c0.081,0.4,0.086,0.968-0.152,1.313c-0.167,0.069-0.319,0.086-0.498,0.094
	c-0.68,0.035-1.391-0.053-2.076-0.063c-0.948-0.02-1.902,0.031-2.851,0.036c-0.053-1.87-0.01-3.749-0.012-5.619
	C12.025,15.895,11.904,14.372,12.085,13.568z"/>
<path fill="#0B4F6C" d="M5.337,13.398c0.073,0,0.146-0.004,0.22-0.004c1.134,0.008,2.101,0.334,2.903,1.154
	c-0.31,0.446-0.634,0.873-0.973,1.297c-0.717-0.457-1.414-0.826-2.299-0.697c-0.693,0.098-1.318,0.525-1.711,1.099
	c-0.474,0.688-0.603,1.586-0.443,2.399c0.144,0.74,0.544,1.401,1.193,1.808c0.774,0.481,1.711,0.483,2.533,0.119
	c0.258-0.114,0.488-0.289,0.764-0.358c0.166,0.038,0.235,0.16,0.335,0.287l0.05,0.061c0.207,0.254,0.385,0.521,0.569,0.789
	c-0.625,0.655-1.501,1.056-2.397,1.144c-1.255,0.122-2.575-0.245-3.549-1.054c-0.899-0.748-1.405-1.779-1.509-2.938
	c-0.115-1.282,0.206-2.571,1.053-3.56C2.922,13.955,4.062,13.499,5.337,13.398z"/>
<path fill="#0B4F6C" d="M32.33,13.568c1.3-0.049,2.615-0.012,3.919-0.016c0.862,0,1.858-0.101,2.7,0.063
	c0.119,0.112,0.123,0.267,0.135,0.428c0.02,0.271,0.083,0.756-0.12,0.966c-0.357,0.375-1.804,0.186-2.311,0.188
	c-0.051,1.634-0.014,3.273-0.012,4.906c-0.004,0.525,0.03,1.049,0.03,1.57c0,0.191-0.022,0.428-0.182,0.559
	c-0.349,0.285-1.224,0.15-1.668,0.139c-0.221-2.225,0.004-4.86-0.094-7.161c-0.523-0.032-1.045,0.002-1.567,0.021
	c-0.275,0.011-0.635-0.006-0.828-0.232c-0.155-0.188-0.151-0.408-0.141-0.633l0.006-0.105C32.21,13.995,32.216,13.809,32.33,13.568
	L32.33,13.568z"/>
<path fill="#0B4F6C" d="M63.909,13.563c0.435-0.01,1.43-0.133,1.774,0.156c0.16,0.834,0.068,1.799,0.065,2.645l-0.002,4.377
	c0.733-0.006,2.646-0.149,3.237,0.097c0.022,0.067,0.045,0.129,0.053,0.2c0.047,0.422,0.111,1.023-0.172,1.352
	c-0.811,0-1.615-0.039-2.426-0.033c-0.682,0.01-1.396,0.065-2.076,0.017c-0.186-0.017-0.293-0.017-0.44-0.13
	c-0.187-0.576-0.177-7.487-0.11-8.262C63.827,13.829,63.857,13.706,63.909,13.563z"/>
<rect x="-159.667" y="35.167" fill="#FFFFFF" width="118.667" height="37.5"/>
<path fill="#0B4F6C" d="M-48.146,52.955c-0.503-0.598-3.521-1.318-3.759-1.838c-0.17-0.359,0.404-0.525,0.613-0.709
	c0.229-0.203,0.386-0.496,0.466-0.785c0.12-0.43,0.076-0.857-0.146-1.245c-0.239-0.405-0.629-0.7-1.087-0.813
	c-0.464-0.107-0.93-0.014-1.326,0.24c-0.479,0.295-0.771,0.828-0.713,1.396c0.024,0.239,0.117,0.539,0.052,0.776
	c-0.038,0.127-0.114,0.223-0.232,0.277c-0.128,0.063-0.241,0.064-0.377,0.037c-0.412-0.086-0.82-0.311-1.207-0.48
	c-0.556-0.244-1.117-0.49-1.696-0.68c0.142-1.154,0.256-2.314,0.385-3.471c0.061-0.529,0.207-1.281,0.171-1.803
	c-0.021-0.236-0.105-0.467-0.252-0.656c-0.162-0.215-0.392-0.396-0.649-0.477c-0.485-0.158-1.716-0.242-2.284-0.313l-4.902-0.611
	c-0.848-0.094-1.696-0.198-2.541-0.306c-0.563-0.074-1.26-0.234-1.819-0.167c-0.259,0.03-0.515,0.159-0.719,0.321
	c-0.244,0.189-0.358,0.4-0.442,0.697c-0.105,0.363-0.133,0.76-0.179,1.135l-0.23,1.805c-0.256,1.967-0.534,3.938-0.753,5.908
	c0.523,0.338,1.048,0.668,1.576,0.996c0.93,0.563,1.978,1.016,2.524,2.009c0.476,1.015,0.282,2.973,0.305,4.147l3.572,0.519
	c0.402,0.06,1.127,0.101,1.48,0.235c0.018,0.217,0.081,0.407,0.241,0.563c0.17,0.16,2.81,1.213,3.206,1.333
	c0.157,0.051,0.324,0.092,0.491,0.082c0.445-0.225,0.231-0.758,0.393-1.189c0.137-0.373,0.437-0.693,0.798-0.855
	c0.31-0.145,0.698-0.172,1.018-0.037c0.4,0.164,0.731,0.447,0.9,0.852c0.24,0.566,0.068,1.053-0.29,1.51
	c-0.101,0.125-0.225,0.26-0.282,0.41c-0.045,0.123-0.04,0.248,0.016,0.366c0.036,0.081,0.087,0.13,0.16,0.171
	c0.425,0.248,0.92,0.4,1.38,0.584c0.531,0.211,1.063,0.445,1.604,0.633c0.27,0.094,0.481,0.07,0.734-0.067
	c0.177-0.093,0.297-0.417,0.374-0.597c0.374-0.881,0.688-1.805,1.022-2.703l1.396-3.692c0.264-0.692,0.551-1.377,0.824-2.065
	c0.099-0.265,0.249-0.553,0.313-0.828C-47.973,53.373-48.014,53.107-48.146,52.955z M-62.727,51.977
	c-0.438,0.371-0.896,0.722-1.353,1.075c-0.359,0.283-0.733,0.615-1.146,0.828c-0.299-0.29-0.546-0.675-0.799-1.007
	c-0.87-1.146-1.864-2.396-2.211-3.824c-0.163-0.656-0.177-1.41,0.192-2.002c0.276-0.447,0.725-0.761,1.243-0.865
	c0.43-0.039,0.826-0.018,1.221,0.187c0.602,0.313,0.942,0.848,1.141,1.479c0.127-0.188,0.278-0.371,0.442-0.527
	c0.413-0.396,0.984-0.676,1.568-0.653c0.497,0.021,1.008,0.278,1.332,0.653c0.364,0.416,0.512,0.949,0.475,1.492
	C-60.712,50.109-61.801,51.174-62.727,51.977z M-57.52,55.506c-0.286,0.438-0.68,0.656-1.177,0.775
	c0.195-1.092,0.329-2.2,0.479-3.299c0.457,0.281,0.815,0.617,0.946,1.158C-57.161,54.6-57.264,55.113-57.52,55.506z"/>
<path fill="#820933" d="M-48.018,53.566c-0.064,0.275-0.213,0.563-0.313,0.828c-0.271,0.688-0.561,1.373-0.824,2.065l-1.396,3.692
	c-0.334,0.9-0.647,1.822-1.021,2.703c-0.076,0.18-0.197,0.504-0.374,0.597c-0.254,0.137-0.464,0.161-0.734,0.067
	c-0.542-0.188-1.072-0.422-1.604-0.633c-0.457-0.184-0.953-0.337-1.378-0.585c-0.073-0.041-0.123-0.089-0.16-0.17
	c-0.058-0.118-0.063-0.243-0.016-0.366c0.057-0.15,0.183-0.285,0.282-0.41c0.356-0.457,0.529-0.944,0.289-1.51
	c-0.17-0.404-0.5-0.686-0.899-0.852c-0.321-0.135-0.709-0.105-1.02,0.037c-0.359,0.162-0.66,0.482-0.797,0.854
	c-0.162,0.435,0.053,0.966-0.394,1.19c-0.166,0.01-0.334-0.031-0.49-0.082c-0.395-0.12-3.036-1.174-3.205-1.333
	c-0.161-0.156-0.226-0.347-0.24-0.563c0.279-0.6,1.156-3.305,1.407-3.545c0.39-0.363,0.979,0.385,1.324,0.555
	c0.284,0.146,0.575,0.168,0.888,0.172c0.495-0.119,0.89-0.34,1.176-0.775c0.256-0.393,0.358-0.906,0.25-1.365
	c-0.131-0.541-0.489-0.877-0.946-1.158c-0.307-0.195-0.611-0.141-0.953-0.174c-0.146-0.014-0.262-0.035-0.359-0.152
	c-0.07-0.191-0.049-0.405,0-0.6c0.106-0.426,0.831-2.365,1.051-2.695c0.055-0.08,0.13-0.137,0.21-0.185
	c0.228-0.13,0.465-0.118,0.711-0.046c0.577,0.189,1.139,0.434,1.694,0.68c0.388,0.17,0.796,0.394,1.208,0.48
	c0.135,0.027,0.249,0.021,0.375-0.039c0.119-0.057,0.194-0.15,0.232-0.275c0.068-0.24-0.025-0.537-0.052-0.777
	c-0.058-0.567,0.236-1.102,0.714-1.396c0.397-0.253,0.863-0.348,1.327-0.238c0.456,0.111,0.848,0.406,1.086,0.813
	c0.223,0.39,0.266,0.813,0.146,1.245c-0.082,0.29-0.238,0.583-0.467,0.783c-0.207,0.187-0.783,0.351-0.613,0.709
	c0.239,0.521,3.255,1.242,3.761,1.839C-48.014,53.107-47.973,53.373-48.018,53.566z"/>
<path fill="#5F0726" d="M-67.674,54.198c-0.547-0.993-1.595-1.445-2.524-2.009c-0.528-0.328-1.053-0.66-1.576-0.996l-0.872-0.531
	c0.231-0.369,0.351-0.742,0.256-1.18c-0.119-0.557-0.529-0.953-0.997-1.243c-0.991-0.61-2.038-1.14-3.028-1.757
	c0.368-0.732,0.527-1.478,0.262-2.277c-0.238-0.725-0.765-1.307-1.443-1.645c-0.688-0.342-1.48-0.394-2.204-0.144
	c-0.708,0.246-1.285,0.765-1.602,1.442c-0.321,0.677-0.35,1.41-0.092,2.113c0.062,0.172,0.145,0.34,0.233,0.502l-2.112,1.231
	c-0.522,0.3-1.149,0.571-1.592,0.979c-0.271,0.246-0.485,0.568-0.573,0.929c-0.104,0.409-0.019,0.834,0.212,1.188
	c0.218,0.337,0.534,0.575,0.929,0.658c0.426,0.089,0.729-0.056,1.086-0.021c0.081,0.006,0.102,0.021,0.159,0.076
	c0.035,0.166-1.389,3.67-1.552,4.092c-0.156,0.394-0.533,1.166-0.516,1.563c0.01,0.188,0.136,0.353,0.289,0.448
	c0.134,0.08,0.309,0.104,0.461,0.117c0.512,0.049,1.052,0.015,1.565,0.017c0.689,0.001,1.382,0.028,2.071,0.021
	c0.032,0.797-0.071,2.254,0.187,2.943c0.108,0.294,0.293,0.534,0.521,0.744c0.689,0.639,1.676,1.096,2.47,1.604l1.717,1.117
	c0.303,0.198,0.616,0.426,0.941,0.588c0.313,0.158,0.677,0.244,1.028,0.226c0.326-0.019,0.669-0.101,0.963-0.244
	c1.157-0.56,2.277-1.526,3.297-2.313c0.576-0.447,1.248-0.896,1.742-1.446c0.666-0.745,0.584-1.701,0.601-2.646
	C-67.392,57.171-67.198,55.213-67.674,54.198z M-72.218,53.998c0.177-0.275,0.521-0.373,0.823-0.434
	c0.275-0.014,0.538-0.019,0.791,0.112c0.163,0.089,0.3,0.222,0.349,0.403c0.041,0.148,0.012,0.306-0.071,0.436
	c-0.166,0.254-0.472,0.349-0.75,0.414c-0.29,0.038-0.609,0.025-0.872-0.115c-0.156-0.084-0.294-0.213-0.342-0.389
	C-72.333,54.275-72.303,54.129-72.218,53.998z M-74.004,56.932c-0.253,0.026-0.526,0.014-0.762-0.094
	c-0.185-0.079-0.351-0.225-0.413-0.419c-0.049-0.149-0.021-0.31,0.056-0.444c0.171-0.285,0.511-0.392,0.814-0.464
	c0.262-0.02,0.52-0.012,0.762,0.111c0.169,0.081,0.317,0.221,0.376,0.401c0.045,0.146,0.028,0.301-0.05,0.433
	C-73.376,56.741-73.703,56.859-74.004,56.932z M-78.138,54.441c-0.028-0.149,0.012-0.303,0.1-0.43
	c0.19-0.271,0.513-0.359,0.821-0.414c0.259-0.021,0.556,0.021,0.773,0.164c0.152,0.098,0.27,0.245,0.301,0.426
	c0.029,0.149-0.014,0.306-0.102,0.431c-0.189,0.265-0.484,0.349-0.789,0.409c-0.275,0.007-0.547-0.018-0.788-0.168
	C-77.975,54.77-78.1,54.623-78.138,54.441z M-74.28,51.553c0.253,0.002,0.529,0.047,0.737,0.195c0.134,0.1,0.229,0.234,0.254,0.4
	c0.021,0.164-0.03,0.317-0.133,0.447c-0.229,0.291-0.568,0.365-0.914,0.416c-0.292,0.006-0.608-0.037-0.849-0.212
	c-0.126-0.094-0.217-0.229-0.238-0.386c-0.02-0.161,0.037-0.313,0.142-0.438C-75.036,51.678-74.645,51.592-74.28,51.553z
	 M-77.686,61.075c-0.063,0.192-0.188,0.262-0.359,0.349c-0.086,0.002-0.165,0.002-0.247-0.023c-0.298-0.09-0.548-0.391-0.69-0.647
	c-0.152-0.276-0.27-0.637-0.165-0.953c0.064-0.192,0.185-0.28,0.36-0.366c0.071,0.006,0.133,0.012,0.201,0.025
	c0.308,0.082,0.533,0.35,0.686,0.614C-77.736,60.357-77.584,60.749-77.686,61.075z M-75.468,60.598
	c-0.066,0.008-0.138,0.017-0.209,0.012c-0.252-0.016-0.493-0.217-0.647-0.404c-0.265-0.314-0.478-0.783-0.42-1.197
	c0.025-0.209,0.119-0.3,0.276-0.426h0.096c0.282,0.007,0.526,0.184,0.71,0.384c0.259,0.286,0.472,0.72,0.45,1.108
	C-75.223,60.313-75.289,60.443-75.468,60.598z M-69.927,59.818c-0.163,0.349-0.438,0.687-0.806,0.82
	c-0.074-0.003-0.167,0.004-0.235-0.025c-0.103-0.045-0.184-0.146-0.226-0.247c-0.138-0.33,0.007-0.886,0.139-1.204
	c0.171-0.398,0.407-0.715,0.817-0.889c0.081-0.004,0.167-0.004,0.244,0.025c0.123,0.047,0.206,0.155,0.246,0.276
	C-69.633,58.925-69.771,59.496-69.927,59.818z"/>
<path fill="#F4AC45" d="M-81.262,46.477c-0.089-0.164-0.172-0.33-0.236-0.504c-0.255-0.703-0.227-1.437,0.095-2.113
	c0.316-0.676,0.896-1.197,1.604-1.442c0.721-0.248,1.514-0.196,2.201,0.144c0.676,0.338,1.207,0.922,1.445,1.646
	c0.262,0.8,0.104,1.546-0.264,2.278c0.991,0.617,2.037,1.146,3.027,1.756c0.47,0.289,0.879,0.687,0.998,1.244
	c0.095,0.438-0.025,0.811-0.256,1.178c-0.69-0.363-1.469-0.65-2.257-0.41C-75.603,50.463-79.39,53-80,53.54
	c-0.244,0.215-0.438,0.483-0.587,0.774c-0.039,0.074-0.082,0.151-0.11,0.236c-0.266,0.854-0.156,2.301-0.137,3.223
	c-0.689,0.008-1.382-0.02-2.071-0.021c-0.514-0.002-1.054,0.031-1.565-0.017c-0.154-0.016-0.327-0.036-0.459-0.117
	c-0.155-0.096-0.279-0.26-0.291-0.447c-0.02-0.4,0.364-1.172,0.516-1.566c0.163-0.42,1.587-3.924,1.554-4.092
	c-0.06-0.052-0.078-0.068-0.161-0.074c-0.356-0.035-0.66,0.106-1.086,0.02c-0.395-0.082-0.711-0.322-0.931-0.658
	c-0.229-0.352-0.314-0.777-0.21-1.189c0.085-0.357,0.302-0.678,0.573-0.928c0.442-0.404,1.074-0.678,1.592-0.977L-81.262,46.477z"/>
<path fill="#820933" d="M-70.198,52.189c-0.528-0.328-1.053-0.66-1.576-0.996l-0.872-0.531c-0.688-0.364-1.469-0.654-2.255-0.412
	c-0.699,0.213-4.489,2.751-5.097,3.29c-0.246,0.217-0.44,0.483-0.589,0.774c-0.04,0.076-0.08,0.156-0.108,0.236
	c0.182,0.147,0.367,0.287,0.561,0.424c0.929,0.648,1.911,1.229,2.86,1.852c0.688,0.449,1.823,1.288,2.529,1.588
	c0.294,0.125,0.538,0.16,0.854,0.104c0.24-0.047,0.483-0.127,0.698-0.248c0.334-0.184,0.64-0.426,0.962-0.627
	c0.368-0.235,0.761-0.441,1.126-0.684c0.533-0.35,1.043-0.738,1.57-1.095c0.477-0.325,1.038-0.615,1.47-0.986
	c0.207-0.183,0.205-0.427,0.351-0.629c0.014-0.017,0.027-0.033,0.04-0.05C-68.221,53.205-69.269,52.753-70.198,52.189z
	 M-76.244,54.618c-0.189,0.265-0.484,0.349-0.789,0.409c-0.275,0.007-0.547-0.018-0.788-0.168c-0.153-0.09-0.278-0.236-0.316-0.418
	c-0.028-0.149,0.012-0.303,0.1-0.43c0.19-0.271,0.513-0.359,0.821-0.414c0.259-0.021,0.556,0.021,0.773,0.164
	c0.152,0.098,0.27,0.245,0.301,0.426C-76.113,54.338-76.156,54.494-76.244,54.618z M-75.423,52.414
	c-0.02-0.162,0.037-0.314,0.142-0.438c0.245-0.299,0.637-0.385,1.001-0.424c0.253,0.002,0.529,0.047,0.737,0.195
	c0.134,0.1,0.229,0.234,0.254,0.4c0.021,0.164-0.03,0.317-0.133,0.447c-0.229,0.291-0.568,0.365-0.914,0.416
	c-0.292,0.006-0.608-0.037-0.849-0.212C-75.311,52.705-75.401,52.57-75.423,52.414z M-73.221,56.454
	c-0.157,0.287-0.483,0.403-0.783,0.478c-0.253,0.026-0.526,0.014-0.762-0.094c-0.185-0.079-0.351-0.225-0.413-0.419
	c-0.049-0.149-0.021-0.31,0.056-0.444c0.171-0.285,0.511-0.392,0.814-0.464c0.262-0.02,0.52-0.012,0.762,0.111
	c0.169,0.081,0.317,0.221,0.376,0.401C-73.126,56.169-73.143,56.324-73.221,56.454z M-70.326,54.518
	c-0.166,0.252-0.472,0.347-0.75,0.414c-0.29,0.037-0.609,0.023-0.872-0.117c-0.156-0.082-0.294-0.211-0.342-0.39
	c-0.043-0.151-0.013-0.298,0.072-0.427c0.175-0.275,0.519-0.375,0.823-0.436c0.274-0.013,0.537-0.019,0.789,0.114
	c0.164,0.087,0.301,0.222,0.35,0.401C-70.214,54.229-70.243,54.387-70.326,54.518z"/>
<path fill="#0B4F6C" d="M-118.372,46.962c-0.459-2.626-2.962-4.38-5.584-3.907c-2.604,0.469-4.341,2.949-3.887,5.555
	c0.452,2.605,2.925,4.355,5.533,3.916C-119.681,52.084-117.916,49.588-118.372,46.962z M-122.645,50.648
	c-1.574,0.256-3.056-0.814-3.308-2.394c-0.251-1.573,0.821-3.057,2.396-3.305c1.571-0.248,3.051,0.821,3.303,2.396
	C-120.004,48.92-121.075,50.398-122.645,50.648z"/>
<path fill="#0B4F6C" d="M-130.25,44.672c-1.501-1.518-3.528-1.465-5.5-1.463c-0.449,0-0.898-0.005-1.348,0.004
	c-0.105,0.398-0.127,8.799-0.016,9.051c0.025,0.059,0.094,0.062,0.153,0.078c0.42,0.102,0.975,0.039,1.408,0.039
	c1.558-0.006,3.081,0.049,4.446-0.832c0.214-0.141,0.418-0.301,0.608-0.469c0.94-0.928,1.418-1.969,1.425-3.298
	C-129.068,46.613-129.419,45.516-130.25,44.672z M-131.908,49.857c-0.981,0.896-2.11,0.791-3.353,0.778
	c-0.016-1.188-0.003-2.381-0.003-3.571c-0.002-0.625-0.054-1.309,0.013-1.922c0.006-0.076,0.028-0.121,0.073-0.179
	c1.113-0.05,2.352-0.062,3.23,0.742c0.559,0.508,0.842,1.19,0.875,1.938C-131.034,48.51-131.317,49.225-131.908,49.857z"/>
<path fill="#0B4F6C" d="M-85.673,52.08c-0.09-0.568-0.752-2.023-0.992-2.652c-0.725-1.891-1.38-3.838-2.172-5.697
	c-0.069-0.168-0.138-0.33-0.27-0.451c-0.522-0.17-1.245-0.074-1.795-0.063c-0.144,0.127-0.215,0.254-0.293,0.426
	c-0.294,0.664-0.524,1.367-0.779,2.045l-1.055,2.756l-0.856,2.242c-0.179,0.481-0.41,0.988-0.511,1.496l0.023,0.027l-0.027,0.027
	c0.245,0.246,0.764,0.187,1.09,0.187c0.314,0.003,0.643,0.039,0.882-0.207c0.354-0.368,0.448-1.11,0.681-1.571
	c0.888-0.01,1.777-0.01,2.669-0.006c0.255,0.002,0.514-0.007,0.77,0.026c0.238,0.492,0.385,1.53,0.94,1.713
	c0.361,0.119,1.3,0.084,1.637-0.069C-85.661,52.215-85.653,52.201-85.673,52.08z M-89.957,48.955l-1.261-0.002
	c0.348-1.021,0.732-2.064,1.165-3.057c0.255,0.188,1.051,2.574,1.212,3.047C-89.21,48.959-89.584,48.953-89.957,48.955z"/>
<path fill="#0B4F6C" d="M-146.354,43.219c0.366-0.012,1.216-0.119,1.516,0.063c0.116,0.069,0.158,0.159,0.182,0.286
	c0.07,0.382,0.021,0.826,0.017,1.216l-0.01,2.735c-0.002,0.681-0.082,1.47,0.085,2.133c0.095,0.382,0.271,0.675,0.62,0.867
	c0.522,0.289,1.305,0.312,1.865,0.119c0.419-0.143,0.729-0.432,0.884-0.848c0.265-0.719,0.136-4.193,0.136-5.242
	c0-0.369-0.06-0.912,0.113-1.252c0.214-0.111,0.464-0.098,0.701-0.098c0.27,0,0.769-0.07,0.952,0.143
	c0.25,0.289,0.117,1.479,0.113,1.891c-0.002,1.193,0.128,3.781-0.102,4.787c-0.098,0.444-0.296,0.861-0.578,1.22
	c-0.606,0.772-1.538,1.178-2.499,1.28c-1.052,0.11-2.192-0.071-3.031-0.754c-0.662-0.537-1.018-1.285-1.105-2.125
	c-0.118-1.129-0.023-2.32-0.025-3.453c-0.003-0.854-0.107-1.832,0.019-2.674C-146.487,43.389-146.432,43.313-146.354,43.219z"/>
<path fill="#0B4F6C" d="M-109.838,43.215c0.789-0.029,5.045-0.093,5.508,0.068c0.033,0.046,0.063,0.09,0.081,0.144
	c0.112,0.31,0.067,1.099-0.073,1.403c-0.252,0.256-3.103,0.129-3.664,0.146c-0.036,0.658-0.026,1.338,0.005,1.998
	c0.819,0.053,2.261-0.129,2.974,0.076c0.102,0.078,0.142,0.159,0.165,0.284c0.05,0.265,0.071,0.937-0.106,1.146
	c-0.209,0.244-2.559,0.147-3.047,0.151l-0.006,0.671l0.004,1.331c0.74,0,1.482,0.015,2.223,0.009
	c0.375-0.002,0.76-0.063,1.135-0.033c0.121,0.01,0.253,0.037,0.355,0.108c0.102,0.072,0.148,0.183,0.172,0.3
	c0.058,0.297,0.049,1.002-0.115,1.258c-0.234,0.1-4.838,0.084-5.4,0.037c-0.118-0.011-0.154-0.041-0.231-0.129
	c-0.079-0.472-0.04-0.98-0.04-1.459v-2.445l0.001-3.188C-109.895,44.482-109.942,43.818-109.838,43.215z"/>
<path fill="#0B4F6C" d="M-98.436,43.047c0.151-0.01,0.305-0.007,0.454-0.002c1.038,0.023,2.125,0.426,2.844,1.188
	c-0.271,0.488-0.666,0.927-1.018,1.359c-0.354-0.224-0.701-0.447-1.098-0.594c-0.66-0.246-1.412-0.248-2.058,0.061
	c-0.693,0.334-1.198,0.961-1.437,1.688c-0.271,0.828-0.212,1.828,0.188,2.606c0.325,0.625,0.874,1.113,1.555,1.32
	c1.055,0.318,1.933-0.057,2.857-0.543c0.13,0.137,0.248,0.289,0.365,0.438c0.195,0.242,0.378,0.496,0.564,0.746
	c-0.598,0.705-1.626,1.123-2.532,1.199c-1.346,0.116-2.615-0.229-3.653-1.107c-0.927-0.787-1.476-1.854-1.565-3.069
	c-0.1-1.345,0.225-2.678,1.131-3.703C-100.95,43.626-99.746,43.135-98.436,43.047z"/>
<path fill="#0B4F6C" d="M-106.636,60.191c0.686-0.371,1.247-0.769,1.478-1.558c0.231-0.811,0.15-1.948-0.273-2.682
	c-0.378-0.661-1.015-1.07-1.742-1.259c-1.081-0.276-3.193-0.182-4.358-0.123c-0.066,0.109-0.087,0.17-0.1,0.299
	c-0.121,1.266-0.016,2.674-0.016,3.949c0,1.277-0.125,3.193,0.061,4.414l0.043-0.08l-0.021,0.154
	c0.395,0.18,1.214,0.108,1.643,0.031c0.154-0.145,0.149-0.291,0.158-0.497c0.029-0.848-0.017-1.694,0.007-2.545
	c0.378-0.005,0.756-0.021,1.131-0.019c0.429,0.725,1.298,2.593,1.843,3.08l0.183,0.027c0.52,0.008,1.278,0.104,1.759-0.066
	C-104.776,62.811-106.281,60.732-106.636,60.191z M-107.285,58.322c-0.708,0.462-1.667,0.359-2.473,0.332
	c-0.02-0.797-0.003-1.6,0-2.401c0.74-0.019,1.843-0.146,2.448,0.343c0.233,0.186,0.336,0.45,0.367,0.744
	C-106.904,57.77-107.017,57.995-107.285,58.322z"/>
<path fill="#0B4F6C" d="M-132.714,54.566c0.422-0.01,0.872-0.051,1.29-0.016c0.21,0.018,0.331,0.121,0.473,0.266
	c0.518,0.531,0.94,1.242,1.374,1.847c0.817,1.134,1.642,2.282,2.54,3.354c0.111-1.186,0.034-2.427,0.031-3.613
	c-0.001-0.541-0.063-1.187,0.086-1.707c0.063-0.049,0.122-0.088,0.204-0.104c0.321-0.071,1.24-0.097,1.522,0.065
	c0.045,0.066,0.065,0.115,0.076,0.191c0.149,1.047,0.024,3.086,0.024,4.232c0,1.271,0.123,2.641-0.006,3.9
	c-0.018,0.172-0.07,0.267-0.176,0.4c-0.489,0.01-0.979,0.004-1.471,0.004c-0.548-0.516-0.989-1.24-1.433-1.85
	c-0.896-1.217-1.775-2.452-2.707-3.641c-0.057,1.476,0.135,3.383-0.029,4.779c-0.019,0.164-0.053,0.5-0.209,0.602
	c-0.273,0.179-1.09,0.189-1.402,0.109c-0.088-0.08-0.146-0.156-0.182-0.27c-0.216-0.665-0.061-3.402-0.072-4.268
	c-0.012-1.231-0.11-2.5-0.053-3.731C-132.826,54.911-132.808,54.754-132.714,54.566L-132.714,54.566z"/>
<path fill="#0B4F6C" d="M-117.646,43.215c0.624-0.039,6.148-0.053,6.338,0.072c0.094,0.137,0.124,0.249,0.134,0.414
	c0.022,0.295,0.093,0.878-0.143,1.104c-0.31,0.297-1.637,0.125-2.105,0.152l-0.084,0.006c-0.109,1.707-0.028,3.459-0.021,5.172
	c0.004,0.487,0.016,0.977,0.008,1.465c-0.003,0.232-0.003,0.515-0.179,0.682c-0.284,0.074-1.274,0.089-1.564,0.021
	c-0.095-0.104-0.102-0.188-0.118-0.325c-0.06-0.559-0.012-1.17-0.011-1.73l0.006-3.459c0.003-0.495,0.111-1.316-0.08-1.764
	c-0.339-0.271-1.425,0.049-1.917-0.08c-0.132-0.036-0.242-0.105-0.308-0.229C-117.87,44.377-117.761,43.559-117.646,43.215z"/>
<path fill="#0B4F6C" d="M-96.756,54.563c-0.617-0.021-1.23-0.021-1.845,0c-0.488,0.783-0.963,2.404-1.309,3.315
	c-0.619,1.638-1.333,3.272-1.876,4.938c-0.049,0.156-0.12,0.307-0.087,0.471c0.38,0.232,1.438,0.1,1.9,0.096
	c0.291-0.561,0.426-1.182,0.704-1.744l2.488,0.012c0.259,0.013,0.522,0.013,0.781,0.025c0.188,0.471,0.343,1.409,0.824,1.639
	c0.313,0.148,1.294,0.158,1.613,0.026c0.063-0.03,0.083-0.049,0.126-0.093C-93.52,62.598-96.319,55.348-96.756,54.563z
	 M-97.662,60.049l-1.109-0.006c0.308-0.958,0.688-1.907,1.081-2.832c0.44,0.587,0.843,2.081,1.09,2.829L-97.662,60.049z"/>
<path fill="#0B4F6C" d="M-152.76,43.215c0.356-0.007,1.367-0.123,1.627,0.072c0.187,0.141,0.054,6.467,0.117,7.281l0.004,0.067
	c0.701,0.046,2.756-0.129,3.245,0.107c0.081,0.14,0.081,0.271,0.086,0.428c0.013,0.392,0.104,0.912-0.181,1.209
	c-0.02,0.004-0.042,0.009-0.063,0.009c-0.58,0.075-1.238,0.021-1.826,0.021c-0.87,0.001-1.783,0.058-2.648-0.016
	c-0.152-0.013-0.315-0.021-0.442-0.115c-0.051-0.141-0.066-0.275-0.073-0.426c-0.027-0.496,0.003-1.004,0.006-1.502l-0.008-3.053
	l-0.001-2.455c0-0.439-0.029-0.9,0.016-1.338C-152.888,43.376-152.849,43.311-152.76,43.215L-152.76,43.215z"/>
<path fill="#0B4F6C" d="M-141.915,54.568c0.742-0.026,5.02-0.104,5.295,0.1c0.075,0.059,0.11,0.168,0.12,0.259
	c0.048,0.351,0.07,0.945-0.143,1.238c-0.418,0.221-2.768,0.106-3.44,0.112c-0.01,0.644,0,1.289,0,1.932
	c0.503,0.016,2.566-0.121,2.884,0.135c0.063,0.053,0.087,0.178,0.096,0.256c0.037,0.313,0.077,0.928-0.129,1.178
	c-0.635,0.26-2.1,0.103-2.836,0.095l-0.01,0.78l0.005,1.082c0.754,0.022,3.036-0.123,3.59,0.064
	c0.053,0.068,0.079,0.115,0.095,0.197c0.081,0.4,0.086,0.968-0.152,1.313c-0.167,0.069-0.319,0.086-0.498,0.094
	c-0.68,0.035-1.391-0.053-2.076-0.063c-0.948-0.02-1.902,0.031-2.851,0.036c-0.053-1.87-0.01-3.749-0.012-5.619
	C-141.975,56.895-142.096,55.372-141.915,54.568z"/>
<path fill="#0B4F6C" d="M-148.663,54.398c0.073,0,0.146-0.004,0.22-0.004c1.134,0.008,2.101,0.334,2.903,1.154
	c-0.31,0.446-0.634,0.873-0.973,1.297c-0.717-0.457-1.414-0.826-2.299-0.697c-0.693,0.098-1.318,0.525-1.711,1.099
	c-0.474,0.688-0.603,1.586-0.443,2.399c0.144,0.74,0.544,1.401,1.193,1.808c0.774,0.481,1.711,0.483,2.533,0.119
	c0.258-0.114,0.488-0.289,0.764-0.358c0.166,0.038,0.235,0.16,0.335,0.287l0.05,0.061c0.207,0.254,0.385,0.521,0.569,0.789
	c-0.625,0.655-1.501,1.056-2.397,1.144c-1.255,0.122-2.575-0.245-3.549-1.054c-0.899-0.748-1.405-1.779-1.509-2.938
	c-0.115-1.282,0.206-2.571,1.053-3.56C-151.078,54.955-149.938,54.499-148.663,54.398z"/>
<path fill="#0B4F6C" d="M-121.67,54.568c1.3-0.049,2.615-0.012,3.919-0.016c0.862,0,1.858-0.101,2.7,0.063
	c0.119,0.112,0.123,0.267,0.135,0.428c0.02,0.271,0.083,0.756-0.12,0.966c-0.357,0.375-1.804,0.186-2.311,0.188
	c-0.051,1.634-0.014,3.273-0.012,4.906c-0.004,0.525,0.03,1.049,0.03,1.57c0,0.191-0.022,0.428-0.182,0.559
	c-0.349,0.285-1.224,0.15-1.668,0.139c-0.221-2.225,0.004-4.86-0.094-7.161c-0.523-0.032-1.045,0.002-1.567,0.021
	c-0.275,0.011-0.635-0.006-0.828-0.232c-0.155-0.188-0.151-0.408-0.141-0.633l0.006-0.105
	C-121.79,54.995-121.784,54.809-121.67,54.568L-121.67,54.568z"/>
<path fill="#0B4F6C" d="M-90.091,54.563c0.435-0.01,1.43-0.133,1.774,0.156c0.161,0.834,0.069,1.799,0.066,2.645l-0.002,4.377
	c0.734-0.006,2.646-0.149,3.238,0.097c0.022,0.067,0.045,0.129,0.052,0.2c0.047,0.422,0.112,1.023-0.172,1.352
	c-0.811,0-1.615-0.039-2.425-0.033c-0.682,0.01-1.396,0.065-2.077,0.017c-0.185-0.017-0.292-0.017-0.44-0.13
	c-0.187-0.576-0.177-7.487-0.111-8.262C-90.173,54.829-90.143,54.706-90.091,54.563z"/>
</svg>
