<?xml version="1.0" encoding="utf-8"?>
<!-- Generator: Adobe Illustrator 16.0.0, SVG Export Plug-In . SVG Version: 6.00 Build 0)  -->
<!DOCTYPE svg PUBLIC "-//W3C//DTD SVG 1.1//EN" "http://www.w3.org/Graphics/SVG/1.1/DTD/svg11.dtd">
<svg version="1.1" id="Layer_1" xmlns="http://www.w3.org/2000/svg" xmlns:xlink="http://www.w3.org/1999/xlink" x="0px" y="0px"
	 width="32px" height="32px" viewBox="0 0 32 32" enable-background="new 0 0 32 32" xml:space="preserve">
<path fill="#FFFFFF" d="M15.417,16.292c0,0-1.271-2.563-1.271-2.938s1.021-3.188,1.021-3.188l3.313,0.354l0.021,0.521
	c0,0,1.125-0.271,1.292-0.313s1.125,0.563,1.125,0.563l0.813,1.667c0,0-0.292,1.021-0.354,1.229s-1.207,1.813-1.291,2
	s-1.313,1.542-1.459,1.646c-0.146,0.104-2.521-0.23-2.521-0.23l-0.583-1.229L15.417,16.292z"/>
<path fill="#FFFFFF" d="M10.516,15.078C10.594,15,9.5,14.734,9.5,14.734l-1.016,0.563l-1.5,0.875c0,0-0.656,0.734-0.734,0.828
	s-0.563,0.922-0.531,0.969s0.703,0.828,0.813,0.922s1.391,0.641,1.563,0.688S9.078,20,9.188,20s1.391-0.094,1.391-0.094
	s1.219-0.828,1.5-0.953s0.875-0.563,1.219-0.797s0.953-0.469,0.547-1S13,16,12.453,15.781S11.047,15,10.906,14.969
	s-0.297,0.125-0.297,0.125L10.516,15.078z"/>
<path fill="#FFFEFE" d="M4.5,22.844l1.219-1.781l1.75-0.5l0.969,0.625l0.75,1.313l-1,1.813c0,0-2.031,0.438-2.188,0.094
	s-1.281-1.219-1.281-1.219L4.5,22.844z"/>
<path fill="#FFFEFE" d="M11.563,22.594l1.063-2.031l1.281-0.25l-0.031,1.531l-0.625,1.25c0,0-0.563,0.625-0.656,0.563
	S11.563,22.594,11.563,22.594z"/>
<path fill="#0F506D" d="M31.755,16.43c-0.427-0.506-2.987-1.118-3.189-1.559c-0.144-0.306,0.344-0.446,0.521-0.601
	c0.195-0.172,0.328-0.421,0.395-0.666c0.102-0.366,0.066-0.727-0.122-1.057c-0.203-0.344-0.533-0.594-0.923-0.689
	c-0.393-0.092-0.789-0.012-1.123,0.202c-0.408,0.251-0.653,0.703-0.604,1.184c0.02,0.204,0.1,0.457,0.042,0.66
	c-0.031,0.107-0.096,0.188-0.197,0.235c-0.108,0.052-0.204,0.056-0.319,0.032c-0.35-0.074-0.695-0.264-1.023-0.408
	c-0.472-0.208-0.947-0.416-1.439-0.577c0.12-0.979,0.217-1.964,0.328-2.944c0.051-0.45,0.175-1.087,0.144-1.529
	c-0.018-0.201-0.089-0.396-0.213-0.557c-0.139-0.183-0.332-0.335-0.551-0.404c-0.412-0.133-1.455-0.206-1.938-0.266l-4.157-0.519
	c-0.72-0.08-1.439-0.167-2.156-0.259c-0.478-0.063-1.069-0.199-1.543-0.142c-0.22,0.026-0.436,0.135-0.609,0.272
	c-0.207,0.161-0.304,0.341-0.375,0.592c-0.089,0.308-0.112,0.645-0.152,0.961l-0.195,1.531c-0.217,1.668-0.453,3.339-0.639,5.012
	c0.444,0.286,0.889,0.566,1.337,0.844c0.789,0.478,1.678,0.861,2.141,1.704c0.404,0.86,0.24,2.521,0.259,3.519l3.03,0.439
	c0.341,0.05,0.956,0.085,1.256,0.199c0.015,0.186,0.068,0.346,0.204,0.479c0.146,0.137,2.385,1.029,2.719,1.131
	c0.136,0.043,0.277,0.077,0.417,0.069c0.379-0.19,0.197-0.642,0.334-1.01c0.115-0.316,0.37-0.587,0.676-0.726
	c0.264-0.121,0.594-0.145,0.864-0.03c0.339,0.138,0.62,0.379,0.764,0.722c0.204,0.48,0.058,0.892-0.246,1.28
	c-0.086,0.106-0.19,0.22-0.239,0.347c-0.037,0.105-0.035,0.212,0.014,0.313c0.031,0.068,0.073,0.108,0.135,0.144
	c0.361,0.212,0.78,0.34,1.17,0.496c0.452,0.179,0.901,0.378,1.362,0.537c0.228,0.079,0.407,0.059,0.622-0.059
	c0.148-0.078,0.25-0.354,0.316-0.505c0.317-0.747,0.583-1.53,0.869-2.294l1.183-3.132c0.224-0.587,0.467-1.168,0.699-1.753
	c0.085-0.224,0.211-0.468,0.267-0.702C31.901,16.786,31.868,16.56,31.755,16.43z M19.388,15.601c-0.37,0.314-0.76,0.611-1.147,0.913
	c-0.305,0.24-0.623,0.522-0.972,0.702c-0.254-0.246-0.463-0.572-0.678-0.854c-0.737-0.974-1.581-2.033-1.875-3.244
	c-0.138-0.558-0.15-1.197,0.163-1.699c0.234-0.379,0.614-0.645,1.055-0.734c0.364-0.033,0.701-0.014,1.035,0.158
	c0.511,0.265,0.8,0.719,0.968,1.256c0.107-0.161,0.235-0.314,0.374-0.448c0.352-0.335,0.835-0.574,1.331-0.554
	c0.421,0.017,0.855,0.237,1.13,0.554c0.309,0.353,0.435,0.805,0.403,1.265C21.097,14.017,20.174,14.92,19.388,15.601z
	 M23.804,18.594c-0.241,0.371-0.576,0.558-0.997,0.658c0.164-0.926,0.279-1.866,0.405-2.799c0.388,0.239,0.691,0.524,0.805,0.983
	C24.107,17.825,24.021,18.262,23.804,18.594z"/>
<path fill="#831435" d="M31.864,16.949c-0.056,0.234-0.182,0.479-0.267,0.702c-0.229,0.585-0.476,1.166-0.699,1.753l-1.183,3.132
	c-0.284,0.765-0.55,1.547-0.869,2.294c-0.063,0.151-0.166,0.427-0.316,0.505c-0.215,0.116-0.395,0.138-0.622,0.059
	c-0.461-0.159-0.91-0.358-1.362-0.537c-0.388-0.156-0.809-0.285-1.167-0.496c-0.063-0.035-0.104-0.075-0.138-0.144
	c-0.049-0.101-0.051-0.207-0.014-0.313c0.049-0.127,0.155-0.24,0.242-0.347c0.301-0.389,0.447-0.802,0.243-1.28
	c-0.144-0.343-0.423-0.581-0.762-0.722c-0.272-0.114-0.603-0.091-0.866,0.03c-0.304,0.139-0.558,0.41-0.676,0.726
	c-0.137,0.369,0.045,0.819-0.334,1.01c-0.14,0.008-0.281-0.026-0.414-0.069c-0.335-0.102-2.576-0.995-2.72-1.131
	c-0.136-0.133-0.191-0.293-0.204-0.479c0.237-0.508,0.981-2.803,1.193-3.006c0.331-0.309,0.831,0.325,1.124,0.47
	c0.241,0.123,0.489,0.142,0.752,0.146c0.421-0.101,0.756-0.287,0.999-0.658c0.218-0.332,0.304-0.769,0.211-1.157
	c-0.111-0.459-0.414-0.744-0.802-0.983c-0.26-0.166-0.519-0.118-0.809-0.147c-0.124-0.011-0.222-0.029-0.306-0.13
	c-0.059-0.163-0.041-0.343,0-0.507c0.091-0.361,0.706-2.006,0.893-2.286c0.047-0.068,0.108-0.117,0.177-0.157
	c0.193-0.111,0.395-0.101,0.603-0.04c0.49,0.161,0.966,0.369,1.438,0.577c0.33,0.144,0.676,0.333,1.025,0.408
	c0.113,0.023,0.211,0.019,0.317-0.032c0.102-0.048,0.166-0.128,0.197-0.235c0.06-0.203-0.021-0.455-0.042-0.66
	c-0.049-0.48,0.199-0.932,0.604-1.184c0.336-0.214,0.732-0.295,1.125-0.202c0.388,0.095,0.72,0.345,0.921,0.69
	c0.188,0.329,0.227,0.69,0.124,1.056c-0.068,0.246-0.201,0.494-0.396,0.666c-0.175,0.156-0.662,0.296-0.518,0.601
	c0.201,0.442,2.76,1.053,3.189,1.558C31.868,16.56,31.901,16.786,31.864,16.949z"/>
<path fill="#5F0726" d="M15.191,17.485c-0.463-0.843-1.352-1.226-2.141-1.704c-0.448-0.278-0.893-0.56-1.337-0.844l-0.74-0.452
	c0.197-0.313,0.297-0.629,0.217-0.999c-0.101-0.472-0.449-0.809-0.846-1.055c-0.841-0.518-1.729-0.966-2.569-1.49
	c0.313-0.622,0.448-1.253,0.222-1.933C7.796,8.396,7.35,7.901,6.774,7.613c-0.583-0.288-1.256-0.332-1.87-0.12
	c-0.601,0.208-1.09,0.648-1.359,1.224C3.273,9.291,3.25,9.913,3.468,10.509c0.052,0.147,0.123,0.29,0.198,0.427L1.875,11.98
	c-0.444,0.254-0.975,0.485-1.351,0.83c-0.23,0.209-0.412,0.482-0.486,0.788c-0.088,0.348-0.016,0.708,0.18,1.007
	c0.184,0.285,0.453,0.488,0.787,0.558c0.362,0.075,0.619-0.046,0.921-0.017c0.069,0.004,0.086,0.018,0.135,0.064
	c0.03,0.141-1.178,3.114-1.316,3.471c-0.133,0.333-0.452,0.989-0.437,1.326c0.008,0.16,0.115,0.3,0.245,0.38
	c0.113,0.069,0.261,0.088,0.391,0.1c0.434,0.043,0.892,0.013,1.328,0.015c0.584,0.001,1.172,0.024,1.757,0.017
	c0.027,0.677-0.061,1.912,0.158,2.497c0.092,0.25,0.249,0.453,0.443,0.632c0.584,0.54,1.421,0.929,2.095,1.361l1.456,0.946
	c0.257,0.169,0.523,0.362,0.798,0.499c0.266,0.135,0.574,0.208,0.873,0.191c0.277-0.016,0.567-0.086,0.816-0.207
	c0.982-0.476,1.932-1.295,2.796-1.963c0.489-0.38,1.059-0.761,1.478-1.229c0.565-0.631,0.496-1.442,0.509-2.244
	C15.431,20.007,15.595,18.346,15.191,17.485z M11.337,17.316c0.15-0.234,0.441-0.317,0.698-0.369
	c0.234-0.01,0.457-0.015,0.671,0.096c0.138,0.076,0.254,0.188,0.295,0.343c0.035,0.126,0.01,0.259-0.06,0.37
	c-0.141,0.215-0.4,0.294-0.636,0.351c-0.247,0.032-0.517,0.021-0.74-0.098c-0.133-0.071-0.25-0.181-0.291-0.329
	C11.239,17.551,11.265,17.427,11.337,17.316z M9.822,19.804c-0.215,0.022-0.446,0.012-0.646-0.079
	c-0.157-0.067-0.297-0.19-0.351-0.355c-0.041-0.127-0.018-0.263,0.048-0.378c0.145-0.242,0.433-0.332,0.69-0.393
	c0.222-0.017,0.441-0.01,0.646,0.094c0.144,0.068,0.27,0.188,0.319,0.341c0.038,0.126,0.023,0.255-0.042,0.367
	C10.355,19.643,10.077,19.743,9.822,19.804z M6.316,17.692c-0.024-0.128,0.01-0.258,0.084-0.364
	c0.162-0.229,0.436-0.306,0.697-0.351c0.22-0.019,0.472,0.017,0.656,0.138c0.129,0.084,0.229,0.209,0.255,0.361
	c0.025,0.127-0.011,0.26-0.086,0.364c-0.161,0.225-0.411,0.296-0.669,0.348c-0.234,0.006-0.464-0.015-0.669-0.142
	C6.454,17.969,6.348,17.846,6.316,17.692z M9.588,15.242c0.214,0.002,0.448,0.039,0.625,0.166c0.114,0.083,0.195,0.198,0.215,0.339
	c0.018,0.14-0.025,0.271-0.113,0.38c-0.194,0.247-0.482,0.31-0.775,0.352c-0.248,0.006-0.516-0.031-0.72-0.179
	c-0.107-0.08-0.184-0.195-0.202-0.327c-0.017-0.137,0.032-0.266,0.12-0.372C8.947,15.348,9.279,15.275,9.588,15.242z M6.699,23.318
	c-0.054,0.163-0.16,0.222-0.305,0.296c-0.073,0.001-0.14,0.001-0.21-0.021c-0.252-0.075-0.464-0.33-0.585-0.549
	c-0.129-0.235-0.229-0.539-0.14-0.809c0.055-0.164,0.157-0.238,0.306-0.311c0.061,0.005,0.113,0.01,0.171,0.021
	c0.261,0.069,0.452,0.296,0.582,0.521C6.656,22.709,6.786,23.042,6.699,23.318z M8.581,22.913c-0.057,0.006-0.117,0.014-0.178,0.01
	c-0.214-0.013-0.418-0.184-0.549-0.343c-0.225-0.269-0.405-0.665-0.356-1.016c0.021-0.178,0.101-0.255,0.235-0.361h0.081
	c0.24,0.006,0.447,0.155,0.603,0.325c0.219,0.243,0.4,0.609,0.381,0.94C8.788,22.672,8.732,22.782,8.581,22.913z M13.28,22.253
	c-0.138,0.295-0.37,0.581-0.684,0.695c-0.063-0.002-0.142,0.004-0.199-0.021c-0.087-0.038-0.156-0.124-0.191-0.21
	c-0.117-0.28,0.006-0.751,0.118-1.021c0.145-0.338,0.345-0.607,0.693-0.753c0.069-0.005,0.141-0.005,0.207,0.021
	c0.104,0.039,0.174,0.132,0.209,0.235C13.53,21.494,13.413,21.979,13.28,22.253z"/>
<path fill="#F3AC45" d="M3.666,10.935c-0.075-0.138-0.146-0.279-0.2-0.427C3.25,9.912,3.273,9.29,3.545,8.716
	c0.269-0.574,0.76-1.017,1.361-1.224c0.611-0.21,1.284-0.168,1.867,0.121C7.347,7.899,7.798,8.394,8,9.008
	c0.222,0.678,0.089,1.311-0.224,1.933c0.841,0.523,1.728,0.971,2.568,1.489c0.398,0.246,0.746,0.583,0.847,1.057
	c0.08,0.37-0.021,0.686-0.217,0.998c-0.585-0.309-1.246-0.553-1.914-0.349c-0.593,0.182-3.805,2.333-4.323,2.792
	c-0.207,0.182-0.372,0.411-0.498,0.657c-0.033,0.063-0.07,0.129-0.094,0.201c-0.225,0.724-0.132,1.952-0.116,2.733
	c-0.585,0.006-1.172-0.017-1.757-0.018c-0.436-0.001-0.894,0.026-1.328-0.014c-0.131-0.014-0.278-0.03-0.39-0.1
	c-0.132-0.082-0.237-0.22-0.247-0.38c-0.017-0.34,0.309-0.993,0.437-1.328c0.139-0.357,1.346-3.328,1.318-3.471
	c-0.051-0.044-0.066-0.058-0.137-0.063c-0.302-0.03-0.56,0.091-0.921,0.015c-0.334-0.068-0.603-0.272-0.789-0.557
	c-0.195-0.299-0.267-0.66-0.178-1.009c0.072-0.304,0.256-0.576,0.486-0.787c0.375-0.343,0.911-0.576,1.351-0.829L3.666,10.935z"/>
<path fill="#831435" d="M13.05,15.781c-0.448-0.278-0.893-0.56-1.337-0.844l-0.74-0.452c-0.583-0.308-1.246-0.554-1.913-0.35
	c-0.593,0.182-3.808,2.334-4.323,2.792c-0.209,0.184-0.374,0.411-0.5,0.657c-0.034,0.064-0.068,0.133-0.092,0.201
	c0.154,0.125,0.311,0.244,0.476,0.359c0.787,0.55,1.621,1.043,2.426,1.57c0.584,0.381,1.546,1.092,2.146,1.347
	c0.25,0.106,0.457,0.135,0.725,0.089c0.204-0.04,0.41-0.109,0.592-0.212c0.284-0.155,0.543-0.36,0.816-0.531
	c0.312-0.199,0.646-0.375,0.955-0.579c0.452-0.296,0.885-0.627,1.332-0.929c0.404-0.275,0.881-0.522,1.247-0.837
	c0.176-0.155,0.174-0.362,0.297-0.533c0.012-0.014,0.023-0.028,0.034-0.043C14.728,16.643,13.839,16.259,13.05,15.781z
	 M7.922,17.841c-0.161,0.225-0.411,0.296-0.669,0.348c-0.234,0.006-0.464-0.015-0.669-0.142c-0.13-0.078-0.236-0.201-0.268-0.354
	c-0.024-0.128,0.01-0.258,0.084-0.364c0.162-0.229,0.436-0.306,0.697-0.351c0.22-0.019,0.472,0.017,0.656,0.138
	c0.129,0.084,0.229,0.209,0.255,0.361C8.033,17.604,7.997,17.736,7.922,17.841z M8.618,15.972c-0.017-0.136,0.032-0.267,0.12-0.371
	c0.208-0.252,0.541-0.326,0.85-0.359c0.214,0.002,0.448,0.039,0.625,0.166c0.114,0.083,0.195,0.198,0.215,0.339
	c0.018,0.14-0.025,0.271-0.113,0.38c-0.194,0.247-0.482,0.31-0.775,0.352c-0.248,0.006-0.516-0.031-0.72-0.179
	C8.713,16.22,8.637,16.104,8.618,15.972z M10.486,19.399c-0.133,0.243-0.41,0.342-0.664,0.404c-0.215,0.022-0.446,0.012-0.646-0.079
	c-0.157-0.067-0.297-0.19-0.351-0.355c-0.041-0.127-0.018-0.263,0.048-0.378c0.145-0.242,0.433-0.332,0.69-0.393
	c0.222-0.017,0.441-0.01,0.646,0.094c0.144,0.068,0.27,0.188,0.319,0.341C10.567,19.156,10.552,19.288,10.486,19.399z
	 M12.942,17.756c-0.141,0.213-0.4,0.293-0.636,0.351c-0.247,0.032-0.517,0.021-0.74-0.099c-0.133-0.07-0.25-0.18-0.291-0.33
	c-0.036-0.129-0.01-0.254,0.062-0.361c0.148-0.234,0.44-0.319,0.698-0.37c0.233-0.01,0.456-0.016,0.669,0.097
	c0.139,0.074,0.255,0.188,0.296,0.342C13.037,17.512,13.012,17.645,12.942,17.756z"/>
<path fill="#0F506D" d="M92.402,12.857c-0.502-0.598-3.521-1.318-3.758-1.838c-0.171-0.359,0.403-0.525,0.612-0.709
	c0.229-0.203,0.386-0.496,0.466-0.785c0.12-0.43,0.076-0.857-0.146-1.245c-0.238-0.405-0.629-0.7-1.086-0.813
	c-0.465-0.107-0.931-0.014-1.326,0.24c-0.479,0.295-0.771,0.828-0.713,1.396c0.023,0.239,0.117,0.539,0.052,0.776
	c-0.038,0.127-0.114,0.223-0.231,0.277c-0.129,0.063-0.242,0.064-0.377,0.037c-0.412-0.086-0.82-0.311-1.207-0.48
	c-0.557-0.244-1.117-0.49-1.697-0.68c0.143-1.154,0.257-2.314,0.386-3.471c0.062-0.529,0.207-1.281,0.171-1.803
	c-0.021-0.236-0.105-0.467-0.252-0.656c-0.162-0.215-0.393-0.396-0.648-0.477c-0.486-0.158-1.717-0.242-2.285-0.313L75.46,1.702
	c-0.849-0.094-1.696-0.198-2.541-0.306c-0.563-0.074-1.261-0.234-1.819-0.167c-0.259,0.03-0.515,0.159-0.719,0.321
	c-0.244,0.189-0.357,0.4-0.441,0.697c-0.105,0.363-0.134,0.76-0.18,1.135l-0.23,1.805c-0.256,1.967-0.533,3.938-0.752,5.908
	c0.522,0.338,1.047,0.668,1.576,0.996c0.93,0.563,1.978,1.016,2.523,2.009c0.477,1.015,0.281,2.973,0.305,4.147l3.572,0.519
	c0.402,0.06,1.127,0.101,1.48,0.235c0.018,0.217,0.08,0.407,0.24,0.563c0.17,0.16,2.811,1.213,3.206,1.333
	c0.157,0.051,0.324,0.092,0.491,0.082c0.445-0.225,0.23-0.758,0.393-1.189c0.137-0.373,0.438-0.693,0.799-0.855
	c0.31-0.145,0.697-0.172,1.018-0.037c0.4,0.164,0.73,0.447,0.9,0.852c0.24,0.566,0.067,1.053-0.291,1.51
	c-0.101,0.125-0.225,0.26-0.281,0.41c-0.045,0.123-0.04,0.248,0.016,0.366c0.036,0.081,0.088,0.13,0.16,0.171
	c0.425,0.248,0.92,0.4,1.38,0.584c0.531,0.211,1.063,0.445,1.604,0.633c0.27,0.094,0.48,0.07,0.734-0.067
	c0.176-0.093,0.297-0.417,0.373-0.597c0.374-0.881,0.688-1.805,1.022-2.703l1.396-3.692c0.264-0.692,0.551-1.377,0.824-2.065
	c0.1-0.265,0.249-0.553,0.313-0.828C92.576,13.275,92.535,13.01,92.402,12.857z M77.822,11.879
	c-0.438,0.371-0.896,0.722-1.354,1.075c-0.359,0.283-0.732,0.615-1.146,0.828c-0.299-0.29-0.545-0.675-0.799-1.007
	c-0.869-1.146-1.863-2.396-2.211-3.824c-0.162-0.656-0.177-1.41,0.192-2.002c0.276-0.447,0.726-0.761,1.243-0.865
	c0.43-0.039,0.826-0.018,1.221,0.187c0.602,0.313,0.941,0.848,1.141,1.479c0.127-0.188,0.278-0.371,0.442-0.527
	c0.413-0.396,0.983-0.676,1.567-0.653c0.498,0.021,1.009,0.278,1.332,0.653c0.365,0.416,0.513,0.949,0.476,1.492
	C79.837,10.012,78.748,11.076,77.822,11.879z M83.029,15.408c-0.287,0.438-0.681,0.656-1.178,0.775
	c0.195-1.092,0.329-2.2,0.479-3.299c0.457,0.281,0.815,0.617,0.946,1.158C83.388,14.502,83.285,15.016,83.029,15.408z"/>
<path fill="#831435" d="M92.531,13.469c-0.064,0.275-0.213,0.563-0.313,0.828c-0.271,0.688-0.562,1.373-0.823,2.065l-1.396,3.692
	c-0.334,0.9-0.647,1.822-1.021,2.703c-0.076,0.18-0.197,0.504-0.373,0.597c-0.255,0.137-0.465,0.161-0.734,0.067
	c-0.543-0.188-1.072-0.422-1.604-0.633c-0.457-0.184-0.952-0.337-1.378-0.585c-0.072-0.041-0.123-0.089-0.16-0.17
	c-0.058-0.118-0.063-0.243-0.016-0.366c0.057-0.15,0.184-0.285,0.281-0.41c0.356-0.457,0.529-0.944,0.289-1.51
	c-0.17-0.404-0.5-0.686-0.898-0.852c-0.32-0.135-0.709-0.105-1.02,0.037c-0.359,0.162-0.66,0.482-0.797,0.854
	c-0.162,0.435,0.053,0.966-0.395,1.19c-0.166,0.01-0.334-0.031-0.49-0.082c-0.395-0.12-3.035-1.174-3.205-1.333
	c-0.16-0.156-0.226-0.347-0.24-0.563c0.279-0.6,1.156-3.305,1.408-3.545c0.389-0.363,0.979,0.385,1.323,0.555
	c0.284,0.146,0.575,0.168,0.888,0.172c0.495-0.119,0.891-0.34,1.176-0.775c0.257-0.393,0.358-0.906,0.25-1.365
	c-0.131-0.541-0.488-0.877-0.945-1.158c-0.307-0.195-0.611-0.141-0.953-0.174c-0.146-0.014-0.262-0.035-0.359-0.152
	c-0.07-0.191-0.049-0.405,0-0.6c0.106-0.426,0.832-2.365,1.051-2.695c0.056-0.08,0.131-0.137,0.211-0.185
	c0.228-0.13,0.465-0.118,0.711-0.046c0.576,0.189,1.139,0.434,1.693,0.68c0.389,0.17,0.797,0.394,1.209,0.48
	c0.135,0.027,0.248,0.021,0.375-0.039c0.118-0.057,0.193-0.15,0.231-0.275c0.067-0.24-0.024-0.537-0.052-0.777
	c-0.059-0.567,0.236-1.102,0.714-1.396c0.397-0.253,0.862-0.348,1.327-0.238c0.455,0.111,0.848,0.406,1.086,0.813
	c0.223,0.39,0.266,0.813,0.146,1.245c-0.081,0.29-0.237,0.583-0.467,0.783c-0.207,0.187-0.783,0.351-0.612,0.709
	c0.238,0.521,3.254,1.242,3.76,1.839C92.535,13.01,92.576,13.275,92.531,13.469z"/>
<path fill="#5F0726" d="M72.875,14.101c-0.547-0.993-1.596-1.445-2.524-2.009c-0.528-0.328-1.053-0.66-1.575-0.996l-0.873-0.531
	c0.231-0.369,0.352-0.742,0.256-1.18c-0.118-0.557-0.528-0.953-0.996-1.243c-0.991-0.61-2.038-1.14-3.028-1.757
	c0.368-0.732,0.526-1.478,0.263-2.277c-0.238-0.725-0.766-1.307-1.443-1.645c-0.688-0.342-1.48-0.394-2.204-0.144
	c-0.708,0.246-1.285,0.765-1.603,1.442c-0.32,0.677-0.35,1.41-0.092,2.113c0.063,0.172,0.145,0.34,0.232,0.502l-2.111,1.231
	c-0.521,0.3-1.148,0.571-1.592,0.979c-0.271,0.246-0.485,0.568-0.573,0.929c-0.104,0.409-0.019,0.834,0.212,1.188
	c0.219,0.337,0.534,0.575,0.93,0.658c0.426,0.089,0.729-0.056,1.086-0.021c0.08,0.006,0.102,0.021,0.158,0.076
	c0.035,0.166-1.389,3.67-1.552,4.092c-0.155,0.394-0.532,1.166-0.517,1.563c0.011,0.188,0.137,0.353,0.289,0.448
	c0.135,0.08,0.31,0.104,0.461,0.117c0.513,0.049,1.053,0.015,1.565,0.017c0.689,0.001,1.382,0.028,2.071,0.021
	c0.032,0.797-0.071,2.254,0.188,2.943c0.107,0.294,0.293,0.534,0.521,0.744c0.688,0.639,1.676,1.096,2.47,1.604l1.717,1.117
	c0.303,0.198,0.616,0.426,0.941,0.588c0.313,0.158,0.678,0.244,1.027,0.226c0.326-0.019,0.67-0.101,0.964-0.244
	c1.157-0.56,2.276-1.526,3.297-2.313c0.576-0.447,1.248-0.896,1.742-1.446c0.666-0.745,0.584-1.701,0.601-2.646
	C73.156,17.073,73.351,15.115,72.875,14.101z M68.331,13.9c0.177-0.275,0.521-0.373,0.823-0.434
	c0.274-0.014,0.537-0.019,0.791,0.112c0.162,0.089,0.299,0.222,0.349,0.403c0.041,0.148,0.012,0.306-0.071,0.436
	c-0.166,0.254-0.472,0.349-0.75,0.414c-0.29,0.038-0.609,0.025-0.872-0.115c-0.155-0.084-0.294-0.213-0.342-0.389
	C68.216,14.178,68.246,14.031,68.331,13.9z M66.545,16.834c-0.253,0.026-0.525,0.014-0.762-0.094
	c-0.186-0.079-0.352-0.225-0.414-0.419c-0.049-0.149-0.021-0.31,0.057-0.444c0.171-0.285,0.512-0.392,0.814-0.464
	c0.262-0.02,0.52-0.012,0.762,0.111c0.169,0.081,0.316,0.221,0.376,0.401c0.045,0.146,0.028,0.301-0.05,0.433
	C67.173,16.644,66.846,16.762,66.545,16.834z M62.41,14.344c-0.027-0.149,0.013-0.303,0.101-0.43
	c0.19-0.271,0.513-0.359,0.821-0.414c0.259-0.021,0.556,0.021,0.773,0.164c0.151,0.098,0.27,0.245,0.301,0.426
	c0.028,0.149-0.015,0.306-0.103,0.431c-0.188,0.265-0.483,0.349-0.789,0.409c-0.274,0.007-0.547-0.018-0.788-0.168
	C62.574,14.672,62.449,14.525,62.41,14.344z M66.27,11.455c0.252,0.002,0.528,0.047,0.736,0.195c0.134,0.1,0.229,0.234,0.254,0.4
	c0.021,0.164-0.029,0.317-0.133,0.447c-0.229,0.291-0.568,0.365-0.914,0.416c-0.292,0.006-0.607-0.037-0.85-0.212
	c-0.125-0.094-0.217-0.229-0.237-0.386c-0.021-0.161,0.037-0.313,0.142-0.438C65.513,11.58,65.904,11.494,66.27,11.455z
	 M62.863,20.978c-0.063,0.192-0.188,0.262-0.359,0.349c-0.086,0.002-0.165,0.002-0.247-0.023c-0.298-0.09-0.548-0.391-0.69-0.647
	c-0.151-0.276-0.27-0.637-0.164-0.953c0.063-0.192,0.185-0.28,0.359-0.366c0.071,0.006,0.133,0.012,0.201,0.025
	c0.309,0.082,0.533,0.35,0.686,0.614C62.813,20.26,62.965,20.651,62.863,20.978z M65.081,20.5c-0.066,0.008-0.138,0.017-0.209,0.012
	c-0.253-0.016-0.493-0.217-0.647-0.404c-0.265-0.314-0.478-0.783-0.42-1.197c0.025-0.209,0.119-0.3,0.276-0.426h0.096
	c0.282,0.007,0.526,0.184,0.71,0.384c0.26,0.286,0.473,0.72,0.45,1.108C65.326,20.215,65.26,20.346,65.081,20.5z M70.622,19.721
	c-0.163,0.349-0.438,0.687-0.806,0.82c-0.074-0.003-0.168,0.004-0.235-0.025c-0.103-0.045-0.185-0.146-0.226-0.247
	c-0.139-0.33,0.006-0.886,0.139-1.204c0.171-0.398,0.406-0.715,0.816-0.889c0.081-0.004,0.168-0.004,0.244,0.025
	c0.123,0.047,0.206,0.155,0.246,0.276C70.916,18.827,70.777,19.398,70.622,19.721z"/>
<path fill="#F3AC45" d="M59.287,6.379c-0.09-0.164-0.172-0.33-0.236-0.504c-0.255-0.703-0.227-1.437,0.096-2.113
	c0.315-0.676,0.896-1.197,1.604-1.442c0.721-0.248,1.514-0.196,2.201,0.144c0.676,0.338,1.207,0.922,1.445,1.646
	c0.262,0.8,0.104,1.546-0.265,2.278c0.991,0.617,2.037,1.146,3.026,1.756c0.471,0.289,0.879,0.687,0.998,1.244
	c0.096,0.438-0.024,0.811-0.256,1.178c-0.689-0.363-1.469-0.65-2.256-0.41c-0.699,0.211-4.486,2.748-5.096,3.288
	c-0.244,0.215-0.438,0.483-0.587,0.774c-0.039,0.074-0.082,0.151-0.11,0.236c-0.266,0.854-0.156,2.301-0.137,3.223
	c-0.689,0.008-1.382-0.02-2.07-0.021c-0.515-0.002-1.055,0.031-1.566-0.017c-0.153-0.016-0.326-0.036-0.459-0.117
	c-0.154-0.096-0.278-0.26-0.291-0.447c-0.02-0.4,0.365-1.172,0.517-1.566c0.163-0.42,1.587-3.924,1.554-4.092
	c-0.06-0.052-0.078-0.068-0.16-0.074c-0.356-0.035-0.66,0.106-1.086,0.02c-0.396-0.082-0.711-0.322-0.932-0.658
	c-0.229-0.352-0.314-0.777-0.21-1.189c0.085-0.357,0.302-0.678,0.573-0.928c0.441-0.404,1.074-0.678,1.592-0.977L59.287,6.379z"/>
<path fill="#831435" d="M70.351,12.092c-0.528-0.328-1.053-0.66-1.575-0.996l-0.873-0.531c-0.688-0.364-1.469-0.654-2.254-0.412
	c-0.699,0.213-4.49,2.751-5.098,3.29c-0.246,0.217-0.439,0.483-0.589,0.774c-0.04,0.076-0.08,0.156-0.108,0.236
	c0.182,0.147,0.367,0.287,0.562,0.424c0.929,0.648,1.911,1.229,2.86,1.852c0.688,0.449,1.822,1.288,2.528,1.588
	c0.294,0.125,0.538,0.16,0.854,0.104c0.24-0.047,0.482-0.127,0.697-0.248c0.334-0.184,0.641-0.426,0.963-0.627
	c0.367-0.235,0.76-0.441,1.125-0.684c0.533-0.35,1.043-0.738,1.57-1.095c0.477-0.325,1.038-0.615,1.471-0.986
	c0.207-0.183,0.205-0.427,0.351-0.629c0.014-0.017,0.026-0.033,0.04-0.05C72.328,13.107,71.279,12.655,70.351,12.092z
	 M64.305,14.521c-0.189,0.265-0.484,0.349-0.789,0.409c-0.275,0.007-0.547-0.018-0.787-0.168c-0.154-0.09-0.279-0.236-0.316-0.418
	c-0.028-0.149,0.012-0.303,0.1-0.43c0.189-0.271,0.514-0.359,0.821-0.414c0.259-0.021,0.556,0.021,0.772,0.164
	c0.152,0.098,0.271,0.245,0.301,0.426C64.436,14.24,64.393,14.396,64.305,14.521z M65.126,12.316
	c-0.021-0.162,0.037-0.314,0.142-0.438c0.245-0.299,0.637-0.385,1.002-0.424c0.252,0.002,0.528,0.047,0.736,0.195
	c0.134,0.1,0.229,0.234,0.254,0.4c0.021,0.164-0.029,0.317-0.133,0.447c-0.229,0.291-0.568,0.365-0.914,0.416
	c-0.292,0.006-0.607-0.037-0.85-0.212C65.238,12.607,65.148,12.473,65.126,12.316z M67.328,16.356
	c-0.157,0.287-0.483,0.403-0.783,0.478c-0.253,0.026-0.525,0.014-0.762-0.094c-0.186-0.079-0.352-0.225-0.414-0.419
	c-0.049-0.149-0.021-0.31,0.057-0.444c0.171-0.285,0.512-0.392,0.814-0.464c0.262-0.02,0.52-0.012,0.762,0.111
	c0.169,0.081,0.316,0.221,0.376,0.401C67.423,16.071,67.406,16.227,67.328,16.356z M70.223,14.42
	c-0.166,0.252-0.472,0.347-0.75,0.414c-0.29,0.037-0.609,0.023-0.872-0.117c-0.155-0.082-0.294-0.211-0.342-0.39
	c-0.043-0.151-0.013-0.298,0.072-0.427c0.175-0.275,0.519-0.375,0.823-0.436c0.273-0.013,0.537-0.019,0.789,0.114
	c0.164,0.087,0.301,0.222,0.35,0.401C70.335,14.131,70.306,14.289,70.223,14.42z"/>
</svg>
