<?xml version="1.0" encoding="utf-8"?>
<!-- Generator: Adobe Illustrator 16.0.0, SVG Export Plug-In . SVG Version: 6.00 Build 0)  -->
<!DOCTYPE svg PUBLIC "-//W3C//DTD SVG 1.1//EN" "http://www.w3.org/Graphics/SVG/1.1/DTD/svg11.dtd">
<svg version="1.1" id="Layer_1" xmlns="http://www.w3.org/2000/svg" xmlns:xlink="http://www.w3.org/1999/xlink" x="0px" y="0px"
	 width="128px" height="128px" viewBox="0 0 128 128" enable-background="new 0 0 128 128" xml:space="preserve">
<path fill="#FFFFFF" d="M62.035,62.238c0,0-5.102-10.285-5.102-11.79c0-1.505,4.098-12.793,4.098-12.793l13.296,1.423l0.081,2.089
	c0,0,4.516-1.088,5.187-1.255c0.67-0.167,4.516,2.258,4.516,2.258l3.26,6.69c0,0-1.172,4.096-1.423,4.932
	c-0.251,0.837-4.845,7.275-5.182,8.028c-0.337,0.752-5.271,6.188-5.855,6.608c-0.583,0.415-10.115-0.926-10.115-0.926l-2.343-4.931
	L62.035,62.238z"/>
<path fill="#FFFFFF" d="M42.362,57.369c0.313-0.314-4.076-1.379-4.076-1.379l-4.076,2.257l-6.021,3.512c0,0-2.634,2.947-2.947,3.324
	c-0.313,0.376-2.258,3.7-2.132,3.888c0.125,0.188,2.822,3.324,3.261,3.7s5.581,2.571,6.271,2.759
	c0.691,0.188,3.951,1.693,4.391,1.693c0.438,0,5.581-0.376,5.581-0.376s4.892-3.324,6.021-3.825c1.127-0.502,3.511-2.258,4.89-3.198
	c1.38-0.94,3.826-1.882,2.196-4.014c-1.631-2.132-3.386-4.641-5.583-5.519c-2.194-0.878-5.643-3.136-6.208-3.261
	c-0.564-0.125-1.191,0.501-1.191,0.501L42.362,57.369z"/>
<path fill="#FFFEFE" d="M18.219,88.535l4.892-7.148l7.023-2.007l3.889,2.508l3.01,5.268l-4.013,7.274c0,0-8.153,1.757-8.78,0.378
	c-0.627-1.381-5.142-4.893-5.142-4.893L18.219,88.535z"/>
<path fill="#FFFEFE" d="M46.564,87.532l4.265-8.152l5.141-1.004l-0.125,6.146l-2.508,5.018c0,0-2.257,2.509-2.634,2.258
	C50.327,91.546,46.564,87.532,46.564,87.532z"/>
<path fill="#0F506D" d="M127.605,62.794c-1.712-2.032-11.988-4.485-12.801-6.255c-0.576-1.227,1.38-1.792,2.09-2.413
	c0.783-0.689,1.316-1.689,1.583-2.67c0.407-1.468,0.267-2.918-0.489-4.241c-0.816-1.382-2.141-2.385-3.705-2.767
	c-1.575-0.371-3.166-0.049-4.506,0.811c-1.64,1.007-2.622,2.822-2.427,4.752c0.077,0.817,0.4,1.834,0.168,2.647
	c-0.125,0.432-0.384,0.753-0.791,0.943c-0.435,0.21-0.818,0.223-1.282,0.13c-1.403-0.298-2.79-1.059-4.106-1.636
	c-1.894-0.835-3.803-1.67-5.777-2.315c0.481-3.931,0.87-7.884,1.316-11.815c0.204-1.805,0.701-4.364,0.575-6.138
	c-0.07-0.806-0.355-1.589-0.854-2.236c-0.557-0.733-1.333-1.347-2.21-1.623c-1.655-0.535-5.84-0.825-7.78-1.066l-16.686-2.081
	c-2.889-0.32-5.777-0.672-8.652-1.041c-1.919-0.253-4.29-0.8-6.194-0.568c-0.883,0.105-1.75,0.542-2.446,1.093
	c-0.831,0.646-1.221,1.368-1.508,2.377c-0.358,1.236-0.451,2.587-0.608,3.858l-0.784,6.146c-0.871,6.695-1.819,13.403-2.563,20.115
	c1.783,1.146,3.566,2.272,5.366,3.389c3.167,1.918,6.734,3.457,8.593,6.839c1.621,3.453,0.962,10.12,1.039,14.122l12.161,1.764
	c1.367,0.2,3.837,0.341,5.039,0.8c0.06,0.745,0.274,1.388,0.819,1.921c0.585,0.548,9.571,4.13,10.912,4.539
	c0.545,0.172,1.112,0.309,1.674,0.277c1.521-0.765,0.791-2.575,1.34-4.052c0.464-1.271,1.485-2.356,2.713-2.913
	c1.058-0.486,2.383-0.58,3.469-0.121c1.36,0.552,2.488,1.521,3.065,2.896c0.818,1.928,0.23,3.578-0.987,5.138
	c-0.347,0.428-0.765,0.882-0.961,1.392c-0.15,0.423-0.143,0.851,0.055,1.254c0.124,0.274,0.294,0.436,0.541,0.577
	c1.45,0.851,3.132,1.363,4.694,1.99c1.816,0.718,3.617,1.517,5.468,2.156c0.914,0.318,1.635,0.235,2.497-0.236
	c0.596-0.313,1.003-1.417,1.27-2.025c1.274-2.998,2.34-6.142,3.489-9.207l4.745-12.569c0.898-2.355,1.875-4.688,2.808-7.035
	c0.34-0.897,0.846-1.877,1.07-2.819C128.194,64.222,128.062,63.314,127.605,62.794z M77.971,59.465
	c-1.486,1.262-3.049,2.453-4.605,3.663c-1.223,0.964-2.501,2.095-3.899,2.815c-1.019-0.985-1.858-2.296-2.721-3.425
	c-2.959-3.907-6.345-8.16-7.524-13.018c-0.555-2.239-0.602-4.804,0.653-6.818c0.941-1.523,2.466-2.587,4.233-2.945
	c1.462-0.131,2.814-0.055,4.154,0.633c2.051,1.063,3.21,2.885,3.885,5.041c0.431-0.645,0.944-1.263,1.501-1.798
	c1.411-1.344,3.351-2.302,5.342-2.224c1.689,0.067,3.434,0.951,4.535,2.224c1.238,1.416,1.743,3.232,1.619,5.078
	C84.83,53.108,81.125,56.735,77.971,59.465z M95.693,71.478c-0.967,1.49-2.312,2.239-4.001,2.643
	c0.658-3.716,1.12-7.49,1.627-11.233c1.556,0.96,2.775,2.103,3.229,3.947C96.913,68.394,96.564,70.146,95.693,71.478z"/>
<path fill="#831435" d="M128.046,64.877c-0.225,0.942-0.73,1.921-1.07,2.819c-0.922,2.348-1.909,4.68-2.808,7.035l-4.745,12.569
	c-1.142,3.068-2.207,6.209-3.489,9.207c-0.254,0.608-0.666,1.712-1.27,2.025c-0.862,0.467-1.583,0.555-2.497,0.236
	c-1.851-0.64-3.651-1.438-5.468-2.156c-1.555-0.627-3.244-1.145-4.684-1.99c-0.25-0.142-0.42-0.303-0.552-0.577
	c-0.197-0.403-0.205-0.831-0.055-1.254c0.196-0.51,0.622-0.964,0.972-1.392c1.207-1.56,1.795-3.218,0.977-5.138
	c-0.577-1.376-1.697-2.333-3.058-2.896c-1.094-0.459-2.419-0.365-3.477,0.121c-1.22,0.557-2.238,1.646-2.713,2.913
	c-0.549,1.48,0.181,3.287-1.34,4.052c-0.562,0.031-1.129-0.105-1.663-0.277c-1.344-0.409-10.338-3.995-10.915-4.539
	c-0.545-0.533-0.768-1.176-0.819-1.921c0.953-2.038,3.938-11.249,4.79-12.063c1.329-1.239,3.335,1.305,4.512,1.885
	c0.969,0.494,1.964,0.567,3.018,0.584c1.689-0.403,3.034-1.152,4.009-2.643c0.875-1.332,1.22-3.084,0.848-4.644
	c-0.446-1.844-1.661-2.987-3.219-3.947c-1.041-0.666-2.08-0.474-3.245-0.59c-0.498-0.045-0.89-0.115-1.227-0.521
	c-0.235-0.653-0.165-1.378,0-2.036c0.365-1.448,2.834-8.053,3.583-9.173c0.188-0.274,0.436-0.47,0.708-0.631
	c0.777-0.445,1.585-0.404,2.42-0.161c1.967,0.644,3.876,1.481,5.77,2.316c1.324,0.578,2.711,1.338,4.114,1.636
	c0.456,0.092,0.848,0.074,1.274-0.13c0.407-0.191,0.666-0.515,0.791-0.943c0.24-0.813-0.083-1.826-0.168-2.649
	c-0.195-1.928,0.8-3.741,2.427-4.75c1.348-0.858,2.938-1.184,4.514-0.811c1.557,0.382,2.889,1.383,3.697,2.769
	c0.756,1.321,0.909,2.771,0.497,4.237c-0.274,0.987-0.808,1.983-1.591,2.672c-0.702,0.625-2.658,1.19-2.077,2.413
	c0.808,1.773,11.076,4.227,12.801,6.253C128.062,63.314,128.194,64.222,128.046,64.877z"/>
<path fill="#5F0726" d="M61.127,67.029c-1.859-3.382-5.427-4.92-8.593-6.839c-1.8-1.117-3.583-2.246-5.366-3.389l-2.97-1.813
	c0.791-1.254,1.195-2.524,0.872-4.009c-0.405-1.896-1.801-3.248-3.394-4.235c-3.374-2.079-6.937-3.878-10.309-5.979
	c1.254-2.496,1.797-5.028,0.891-7.756c-0.811-2.461-2.602-4.447-4.912-5.602c-2.34-1.156-5.041-1.332-7.504-0.482
	c-2.411,0.837-4.376,2.603-5.454,4.914c-1.094,2.301-1.188,4.799-0.312,7.19c0.21,0.589,0.492,1.162,0.794,1.715l-7.188,4.19
	c-1.782,1.019-3.914,1.948-5.42,3.332c-0.925,0.838-1.653,1.936-1.952,3.163c-0.355,1.395-0.063,2.84,0.723,4.042
	c0.739,1.143,1.816,1.959,3.16,2.24c1.452,0.302,2.485-0.187,3.697-0.067c0.277,0.018,0.346,0.071,0.543,0.256
	c0.12,0.567-4.726,12.498-5.283,13.932c-0.533,1.336-1.814,3.971-1.754,5.322c0.034,0.644,0.461,1.203,0.983,1.524
	c0.455,0.278,1.049,0.354,1.57,0.4c1.742,0.173,3.578,0.051,5.328,0.059c2.346,0.004,4.704,0.099,7.051,0.067
	c0.11,2.715-0.243,7.674,0.633,10.021c0.37,1.004,0.999,1.817,1.777,2.535c2.346,2.168,5.705,3.729,8.407,5.464l5.844,3.799
	c1.031,0.678,2.098,1.453,3.204,2.003c1.067,0.541,2.305,0.834,3.501,0.767c1.112-0.063,2.277-0.345,3.277-0.829
	c3.94-1.909,7.754-5.197,11.223-7.879c1.964-1.524,4.249-3.053,5.932-4.931c2.268-2.531,1.989-5.789,2.045-9.007
	C62.089,77.149,62.748,70.482,61.127,67.029z M45.658,66.352c0.604-0.94,1.772-1.273,2.803-1.482
	c0.939-0.041,1.833-0.058,2.695,0.384c0.554,0.307,1.019,0.753,1.186,1.376c0.141,0.506,0.041,1.039-0.242,1.486
	c-0.566,0.861-1.606,1.179-2.553,1.406c-0.989,0.13-2.075,0.086-2.968-0.392c-0.534-0.286-1.001-0.726-1.167-1.32
	C45.267,67.292,45.371,66.795,45.658,66.352z M39.58,76.334c-0.863,0.091-1.791,0.047-2.594-0.317
	c-0.63-0.271-1.195-0.764-1.407-1.426c-0.166-0.511-0.073-1.055,0.192-1.518c0.58-0.972,1.738-1.332,2.77-1.575
	c0.893-0.066,1.771-0.039,2.593,0.376c0.577,0.274,1.083,0.753,1.282,1.368c0.153,0.505,0.094,1.023-0.17,1.474
	C41.718,75.688,40.603,76.091,39.58,76.334z M25.507,67.86c-0.098-0.514,0.039-1.034,0.337-1.462
	c0.649-0.917,1.749-1.227,2.797-1.409c0.881-0.075,1.894,0.067,2.634,0.555c0.518,0.337,0.917,0.838,1.022,1.449
	c0.103,0.51-0.045,1.043-0.345,1.463c-0.645,0.901-1.65,1.187-2.685,1.395c-0.939,0.023-1.864-0.059-2.685-0.568
	C26.062,68.97,25.636,68.477,25.507,67.86z M38.639,58.024c0.861,0.01,1.798,0.155,2.508,0.667c0.457,0.333,0.782,0.795,0.864,1.36
	c0.07,0.56-0.102,1.085-0.452,1.524c-0.778,0.992-1.934,1.245-3.112,1.413c-0.994,0.023-2.072-0.123-2.889-0.719
	c-0.429-0.32-0.736-0.782-0.811-1.311c-0.067-0.55,0.126-1.066,0.482-1.493C36.065,58.452,37.399,58.158,38.639,58.024z
	 M27.046,90.439c-0.216,0.655-0.641,0.891-1.223,1.188c-0.294,0.004-0.563,0.004-0.843-0.085c-1.013-0.303-1.864-1.326-2.35-2.203
	c-0.52-0.945-0.917-2.164-0.563-3.246c0.222-0.658,0.629-0.956,1.227-1.247c0.243,0.021,0.453,0.04,0.686,0.087
	c1.046,0.278,1.814,1.188,2.333,2.094C26.873,87.995,27.393,89.332,27.046,90.439z M34.596,88.813
	c-0.228,0.023-0.468,0.056-0.712,0.04c-0.86-0.052-1.679-0.737-2.203-1.376c-0.901-1.077-1.627-2.669-1.432-4.076
	c0.087-0.714,0.407-1.023,0.944-1.45h0.323c0.962,0.023,1.794,0.623,2.418,1.305c0.881,0.976,1.605,2.446,1.532,3.775
	C35.429,87.846,35.204,88.289,34.596,88.813z M53.458,86.164c-0.555,1.185-1.486,2.332-2.744,2.791
	c-0.251-0.008-0.569,0.016-0.8-0.086c-0.348-0.153-0.627-0.498-0.768-0.843c-0.471-1.125,0.023-3.014,0.473-4.097
	c0.579-1.355,1.385-2.437,2.783-3.021c0.276-0.02,0.566-0.02,0.83,0.082c0.418,0.157,0.701,0.53,0.839,0.945
	C54.46,83.119,53.991,85.063,53.458,86.164z"/>
<path fill="#F3AC45" d="M14.87,40.738c-0.302-0.552-0.584-1.12-0.803-1.714c-0.866-2.389-0.773-4.888,0.321-7.191
	c1.078-2.305,3.049-4.08,5.463-4.913c2.454-0.845,5.154-0.674,7.495,0.483c2.298,1.153,4.109,3.138,4.918,5.603
	c0.892,2.723,0.357,5.26-0.897,7.757c3.374,2.101,6.935,3.898,10.306,5.975c1.599,0.986,2.992,2.338,3.397,4.241
	c0.323,1.485-0.085,2.751-0.872,4.005c-2.348-1.241-5-2.218-7.682-1.401c-2.38,0.729-15.271,9.366-17.351,11.206
	c-0.832,0.732-1.494,1.649-1.998,2.636c-0.133,0.251-0.28,0.517-0.375,0.807c-0.904,2.904-0.531,7.835-0.465,10.972
	c-2.348,0.023-4.706-0.067-7.051-0.071c-1.75-0.004-3.586,0.106-5.328-0.055c-0.527-0.055-1.116-0.122-1.564-0.4
	c-0.529-0.329-0.951-0.881-0.99-1.524c-0.068-1.364,1.239-3.986,1.754-5.33c0.557-1.435,5.403-13.357,5.29-13.932
	c-0.204-0.178-0.267-0.23-0.549-0.252c-1.212-0.122-2.245,0.365-3.697,0.061c-1.343-0.274-2.421-1.093-3.167-2.233
	c-0.781-1.202-1.07-2.65-0.715-4.051c0.29-1.221,1.027-2.311,1.952-3.16c1.507-1.375,3.656-2.31,5.42-3.325L14.87,40.738z"/>
<path fill="#831435" d="M52.534,60.19c-1.8-1.117-3.583-2.246-5.366-3.389l-2.97-1.813c-2.341-1.237-5-2.222-7.676-1.405
	c-2.379,0.729-15.284,9.37-17.349,11.206c-0.839,0.74-1.501,1.649-2.005,2.636c-0.135,0.259-0.274,0.532-0.368,0.807
	c0.617,0.503,1.248,0.98,1.908,1.443c3.159,2.206,6.504,4.186,9.735,6.303c2.345,1.528,6.207,4.381,8.612,5.404
	c1.001,0.428,1.833,0.54,2.908,0.356c0.817-0.161,1.647-0.439,2.377-0.851c1.139-0.623,2.179-1.446,3.276-2.132
	c1.252-0.8,2.591-1.505,3.832-2.324c1.816-1.188,3.552-2.517,5.347-3.728c1.622-1.105,3.535-2.097,5.002-3.358
	c0.705-0.624,0.697-1.455,1.193-2.141c0.046-0.055,0.095-0.113,0.136-0.173C59.268,63.647,55.7,62.109,52.534,60.19z M31.952,68.457
	c-0.645,0.901-1.65,1.187-2.685,1.395c-0.939,0.023-1.864-0.059-2.685-0.568c-0.521-0.313-0.947-0.807-1.076-1.423
	c-0.098-0.514,0.039-1.034,0.337-1.462c0.649-0.917,1.749-1.227,2.797-1.409c0.881-0.075,1.894,0.067,2.634,0.555
	c0.518,0.337,0.917,0.838,1.022,1.449C32.4,67.504,32.251,68.037,31.952,68.457z M34.747,60.955
	c-0.067-0.546,0.126-1.072,0.482-1.489c0.836-1.013,2.17-1.307,3.41-1.441c0.861,0.01,1.798,0.155,2.508,0.667
	c0.457,0.333,0.782,0.795,0.864,1.36c0.07,0.56-0.102,1.085-0.452,1.524c-0.778,0.992-1.934,1.245-3.112,1.413
	c-0.994,0.023-2.072-0.123-2.889-0.719C35.129,61.95,34.822,61.487,34.747,60.955z M42.245,74.712
	c-0.535,0.976-1.647,1.371-2.666,1.622c-0.863,0.091-1.791,0.047-2.594-0.317c-0.63-0.271-1.195-0.764-1.407-1.426
	c-0.166-0.511-0.073-1.055,0.192-1.518c0.58-0.972,1.738-1.332,2.77-1.575c0.893-0.066,1.771-0.039,2.593,0.376
	c0.577,0.274,1.083,0.753,1.282,1.368C42.568,73.735,42.509,74.266,42.245,74.712z M52.1,68.116
	c-0.566,0.854-1.606,1.175-2.553,1.406c-0.989,0.13-2.075,0.086-2.968-0.396c-0.534-0.282-1.001-0.722-1.167-1.325
	c-0.145-0.518-0.041-1.019,0.247-1.45c0.596-0.94,1.766-1.281,2.803-1.486c0.935-0.041,1.83-0.062,2.686,0.388
	c0.56,0.299,1.023,0.753,1.19,1.372C52.482,67.136,52.382,67.669,52.1,68.116z"/>
<path fill="#0F506D" d="M323.812,21.908c-1.704-2.957-11.951-6.522-12.757-9.093c-0.58-1.778,1.369-2.6,2.079-3.508
	c0.779-1.005,1.31-2.454,1.581-3.884c0.408-2.126,0.259-4.242-0.497-6.16c-0.81-2.005-2.135-3.464-3.687-4.024
	c-1.578-0.532-3.159-0.068-4.502,1.188c-1.628,1.459-2.619,4.097-2.42,6.904c0.079,1.184,0.397,2.667,0.176,3.841
	c-0.13,0.628-0.389,1.102-0.786,1.372c-0.438,0.309-0.822,0.319-1.28,0.184c-1.398-0.425-2.784-1.537-4.097-2.377
	c-1.89-1.208-3.793-2.425-5.763-3.362c0.484-5.711,0.872-11.451,1.31-17.171c0.209-2.619,0.703-6.339,0.581-8.919
	c-0.073-1.169-0.358-2.31-0.855-3.247c-0.551-1.063-1.333-1.961-2.201-2.358c-1.651-0.783-5.829-1.198-7.758-1.551l-16.64-3.024
	c-2.881-0.464-5.758-0.981-8.626-1.512c-1.913-0.367-4.28-1.16-6.176-0.826c-0.879,0.15-1.747,0.788-2.44,1.589
	c-0.829,0.938-1.213,1.981-1.498,3.45c-0.358,1.797-0.454,3.759-0.61,5.614l-0.782,8.928c-0.869,9.73-1.811,19.48-2.553,29.23
	c1.773,1.672,3.554,3.305,5.351,4.928c3.156,2.783,6.713,5.025,8.566,9.938c1.618,5.02,0.955,14.707,1.034,20.519l12.127,2.565
	c1.366,0.294,3.826,0.498,5.026,1.164c0.06,1.073,0.271,2.015,0.815,2.788c0.577,0.792,9.541,6,10.884,6.595
	c0.534,0.251,1.101,0.454,1.668,0.406c1.512-1.111,0.782-3.749,1.332-5.885c0.465-1.846,1.485-3.43,2.712-4.232
	c1.051-0.715,2.367-0.85,3.455-0.184c1.358,0.812,2.479,2.213,3.057,4.213c0.815,2.802,0.229,5.208-0.988,7.469
	c-0.342,0.618-0.763,1.285-0.955,2.029c-0.152,0.608-0.136,1.228,0.054,1.812c0.122,0.401,0.298,0.643,0.543,0.846
	c1.442,1.228,3.123,1.98,4.685,2.889c1.804,1.044,3.61,2.203,5.447,3.131c0.915,0.464,1.631,0.349,2.493-0.333
	c0.597-0.459,1.008-2.063,1.266-2.952c1.271-4.357,2.338-8.928,3.472-13.373l4.737-18.268c0.895-3.426,1.87-6.813,2.798-10.219
	c0.338-1.309,0.846-2.734,1.061-4.097C324.402,23.976,324.263,22.662,323.812,21.908z M274.315,17.067
	c-1.488,1.836-3.043,3.57-4.595,5.319c-1.22,1.401-2.486,3.044-3.892,4.097c-1.015-1.435-1.851-3.338-2.712-4.981
	c-2.951-5.672-6.326-11.856-7.506-18.919c-0.551-3.247-0.601-6.977,0.653-9.905c0.938-2.212,2.463-3.764,4.22-4.28
	c1.459-0.193,2.805-0.087,4.145,0.923c2.042,1.551,3.195,4.193,3.872,7.319c0.431-0.933,0.944-1.836,1.502-2.609
	c1.402-1.957,3.338-3.343,5.32-3.232c1.691,0.102,3.425,1.377,4.522,3.232c1.239,2.058,1.74,4.696,1.614,7.382
	C281.155,7.829,277.459,13.096,274.315,17.067z M291.992,34.528c-0.975,2.165-2.311,3.247-3.998,3.836
	c0.663-5.401,1.117-10.885,1.628-16.32c1.552,1.391,2.769,3.053,3.212,5.73C293.209,30.044,292.861,32.585,291.992,34.528z"/>
<path fill="#831435" d="M324.249,24.933c-0.219,1.362-0.723,2.788-1.063,4.097c-0.919,3.406-1.906,6.793-2.795,10.219l-4.741,18.268
	c-1.134,4.455-2.197,9.016-3.468,13.373c-0.258,0.89-0.669,2.493-1.266,2.952c-0.865,0.677-1.578,0.797-2.493,0.333
	c-1.844-0.927-3.641-2.087-5.447-3.13c-1.552-0.909-3.232-1.667-4.678-2.895c-0.245-0.203-0.418-0.439-0.544-0.841
	c-0.195-0.584-0.212-1.203-0.053-1.812c0.192-0.744,0.623-1.411,0.955-2.029c1.21-2.261,1.797-4.672,0.981-7.469
	c-0.577-2-1.698-3.392-3.051-4.213c-1.087-0.667-2.406-0.522-3.461,0.184c-1.22,0.802-2.241,2.387-2.705,4.228
	c-0.55,2.15,0.179,4.778-1.339,5.889c-0.564,0.048-1.134-0.154-1.665-0.406c-1.339-0.594-10.304-5.807-10.88-6.595
	c-0.544-0.773-0.766-1.715-0.815-2.788c0.948-2.967,3.925-16.35,4.78-17.538c1.319-1.797,3.322,1.903,4.492,2.744
	c0.965,0.72,1.952,0.831,3.014,0.85c1.681-0.589,3.023-1.681,3.991-3.836c0.872-1.942,1.217-4.483,0.849-6.754
	c-0.444-2.677-1.657-4.339-3.209-5.73c-1.041-0.966-2.075-0.696-3.235-0.86c-0.498-0.068-0.889-0.174-1.221-0.754
	c-0.238-0.947-0.165-2.005,0-2.966c0.361-2.107,2.825-11.702,3.567-13.335c0.189-0.396,0.444-0.676,0.716-0.913
	c0.772-0.643,1.578-0.584,2.414-0.227c1.956,0.938,3.865,2.145,5.748,3.363c1.319,0.84,2.706,1.947,4.104,2.377
	c0.458,0.135,0.842,0.106,1.273-0.193c0.4-0.28,0.656-0.744,0.785-1.362c0.229-1.188-0.083-2.657-0.176-3.846
	c-0.198-2.807,0.803-5.45,2.424-6.909c1.35-1.251,2.928-1.72,4.505-1.179c1.545,0.551,2.878,2.01,3.687,4.024
	c0.756,1.928,0.902,4.024,0.494,6.16c-0.275,1.435-0.806,2.884-1.584,3.875c-0.703,0.923-2.659,1.735-2.079,3.508
	c0.809,2.58,11.046,6.146,12.764,9.098C324.263,22.662,324.402,23.976,324.249,24.933z"/>
<path fill="#5F0726" d="M257.521,28.059c-1.856-4.914-5.417-7.151-8.569-9.938c-1.794-1.624-3.574-3.266-5.348-4.928l-2.964-2.628
	c0.786-1.827,1.193-3.672,0.868-5.836c-0.4-2.754-1.793-4.715-3.381-6.15c-3.365-3.02-6.919-5.638-10.28-8.692
	c1.249-3.624,1.786-7.31,0.892-11.267c-0.809-3.585-2.6-6.464-4.9-8.136c-2.337-1.691-5.025-1.947-7.482-0.71
	c-2.403,1.218-4.362,3.783-5.439,7.136c-1.088,3.348-1.188,6.977-0.313,10.455c0.213,0.851,0.491,1.682,0.789,2.483l-7.167,6.092
	c-1.771,1.483-3.898,2.827-5.404,4.846c-0.921,1.217-1.647,2.812-1.945,4.595c-0.355,2.024-0.063,4.126,0.719,5.875
	c0.743,1.667,1.813,2.846,3.156,3.256c1.445,0.439,2.474-0.275,3.687-0.102c0.271,0.029,0.345,0.106,0.537,0.377
	c0.119,0.821-4.714,18.156-5.268,20.244c-0.527,1.947-1.807,5.769-1.754,7.735c0.036,0.933,0.464,1.744,0.981,2.218
	c0.457,0.396,1.051,0.512,1.564,0.58c1.74,0.242,3.574,0.073,5.314,0.082c2.341,0.005,4.69,0.14,7.031,0.102
	c0.109,3.942-0.242,11.151,0.637,14.562c0.364,1.454,0.995,2.643,1.767,3.682c2.338,3.16,5.689,5.42,8.385,7.933l5.828,5.527
	c1.027,0.98,2.092,2.106,3.195,2.908c1.062,0.783,2.301,1.208,3.488,1.116c1.107-0.092,2.274-0.498,3.271-1.208
	c3.929-2.769,7.729-7.552,11.192-11.445c1.956-2.213,4.237-4.431,5.915-7.156c2.261-3.686,1.982-8.416,2.038-13.088
	C258.476,42.765,259.136,33.078,257.521,28.059z M242.095,27.068c0.601-1.362,1.768-1.846,2.795-2.145
	c0.932-0.068,1.823-0.092,2.686,0.556c0.55,0.439,1.015,1.097,1.184,1.995c0.14,0.734,0.04,1.512-0.242,2.155
	c-0.563,1.256-1.602,1.725-2.546,2.049c-0.984,0.188-2.068,0.125-2.961-0.57c-0.526-0.416-0.998-1.053-1.16-1.923
	C241.704,28.44,241.807,27.715,242.095,27.068z M236.031,41.582c-0.858,0.13-1.783,0.068-2.586-0.464
	c-0.63-0.391-1.193-1.111-1.405-2.073c-0.166-0.739-0.069-1.531,0.192-2.198c0.58-1.411,1.737-1.938,2.765-2.295
	c0.889-0.097,1.764-0.058,2.586,0.551c0.573,0.401,1.074,1.092,1.276,1.986c0.152,0.725,0.097,1.488-0.169,2.14
	C238.163,40.64,237.053,41.224,236.031,41.582z M221.995,29.261c-0.093-0.739,0.043-1.498,0.341-2.125
	c0.646-1.338,1.741-1.778,2.789-2.049c0.878-0.102,1.886,0.102,2.625,0.812c0.514,0.483,0.915,1.212,1.021,2.106
	c0.096,0.739-0.05,1.512-0.349,2.13c-0.64,1.31-1.641,1.725-2.679,2.024c-0.932,0.034-1.856-0.087-2.675-0.831
	C222.552,30.885,222.128,30.16,221.995,29.261z M235.097,14.97c0.855,0.009,1.794,0.232,2.5,0.966
	c0.454,0.493,0.775,1.159,0.861,1.98c0.073,0.812-0.099,1.57-0.45,2.213c-0.776,1.44-1.93,1.807-3.104,2.058
	c-0.991,0.029-2.062-0.184-2.884-1.048c-0.425-0.464-0.736-1.135-0.806-1.908c-0.07-0.797,0.126-1.546,0.48-2.165
	C232.527,15.588,233.856,15.163,235.097,14.97z M223.533,62.081c-0.216,0.952-0.64,1.295-1.22,1.725
	c-0.292,0.01-0.561,0.01-0.839-0.116c-1.012-0.444-1.86-1.933-2.344-3.203c-0.514-1.367-0.915-3.15-0.558-4.715
	c0.216-0.952,0.627-1.387,1.221-1.812c0.241,0.029,0.45,0.058,0.683,0.126c1.048,0.406,1.811,1.729,2.327,3.039
	C223.361,58.53,223.878,60.468,223.533,62.081z M231.063,59.719c-0.226,0.039-0.468,0.082-0.71,0.058
	c-0.858-0.078-1.674-1.073-2.198-2c-0.898-1.556-1.621-3.875-1.425-5.923c0.086-1.034,0.404-1.483,0.938-2.106h0.325
	c0.958,0.034,1.787,0.908,2.41,1.899c0.882,1.416,1.604,3.561,1.528,5.483C231.895,58.308,231.669,58.955,231.063,59.719z
	 M249.873,55.863c-0.554,1.725-1.485,3.396-2.735,4.058c-0.252-0.014-0.57,0.02-0.799-0.125c-0.349-0.222-0.627-0.725-0.767-1.222
	c-0.471-1.633,0.021-4.382,0.472-5.957c0.58-1.971,1.379-3.537,2.771-4.397c0.274-0.019,0.569-0.019,0.828,0.126
	c0.418,0.232,0.7,0.768,0.836,1.367C250.87,51.442,250.399,54.269,249.873,55.863z"/>
<path fill="#F3AC45" d="M211.393-10.144c-0.305-0.812-0.583-1.633-0.802-2.493c-0.865-3.479-0.77-7.107,0.325-10.455
	c1.07-3.343,3.039-5.923,5.443-7.136c2.446-1.227,5.139-0.971,7.473,0.71c2.294,1.672,4.098,4.561,4.906,8.141
	c0.889,3.957,0.352,7.648-0.898,11.271c3.365,3.053,6.915,5.667,10.273,8.687c1.599,1.43,2.984,3.396,3.389,6.155
	c0.324,2.164-0.083,4.01-0.869,5.827c-2.34-1.797-4.985-3.218-7.658-2.029c-2.373,1.043-15.229,13.596-17.299,16.267
	c-0.828,1.063-1.484,2.392-1.992,3.832c-0.133,0.367-0.278,0.749-0.375,1.169c-0.901,4.223-0.53,11.383-0.464,15.943
	c-2.341,0.039-4.69-0.097-7.028-0.102c-1.747-0.009-3.58,0.155-5.317-0.082c-0.521-0.077-1.107-0.179-1.558-0.58
	c-0.524-0.474-0.945-1.285-0.988-2.213c-0.066-1.981,1.24-5.798,1.754-7.75c0.554-2.078,5.387-19.413,5.274-20.244
	c-0.202-0.256-0.266-0.338-0.544-0.367c-1.21-0.174-2.241,0.526-3.687,0.097c-1.343-0.406-2.413-1.594-3.163-3.256
	c-0.775-1.739-1.067-3.846-0.712-5.885c0.288-1.769,1.024-3.353,1.945-4.59c1.499-2,3.647-3.353,5.404-4.832L211.393-10.144z"/>
<path fill="#831435" d="M248.951,18.12c-1.794-1.624-3.574-3.266-5.348-4.928l-2.964-2.628c-2.334-1.802-4.986-3.237-7.651-2.039
	c-2.374,1.053-15.243,13.61-17.306,16.277c-0.835,1.073-1.491,2.392-1.999,3.832c-0.136,0.377-0.271,0.773-0.368,1.169
	c0.617,0.729,1.247,1.42,1.906,2.097c3.153,3.208,6.488,6.083,9.711,9.16c2.334,2.223,6.186,6.373,8.583,7.856
	c0.998,0.619,1.826,0.792,2.9,0.512c0.815-0.232,1.638-0.628,2.367-1.227c1.134-0.908,2.175-2.106,3.269-3.102
	c1.247-1.164,2.579-2.184,3.819-3.382c1.811-1.729,3.541-3.652,5.331-5.416c1.618-1.609,3.524-3.044,4.992-4.88
	c0.703-0.903,0.696-2.111,1.19-3.111c0.047-0.082,0.09-0.164,0.136-0.246C255.664,23.145,252.104,20.908,248.951,18.12z
	 M228.427,30.136c-0.644,1.31-1.645,1.725-2.679,2.024c-0.936,0.034-1.856-0.087-2.672-0.831c-0.524-0.444-0.948-1.169-1.074-2.068
	c-0.097-0.739,0.039-1.498,0.338-2.125c0.643-1.338,1.744-1.778,2.788-2.049c0.878-0.102,1.887,0.102,2.622,0.812
	c0.518,0.483,0.919,1.212,1.021,2.106C228.871,28.749,228.725,29.522,228.427,30.136z M231.215,19.231
	c-0.07-0.802,0.126-1.556,0.48-2.165c0.832-1.479,2.161-1.904,3.401-2.097c0.855,0.009,1.794,0.232,2.5,0.966
	c0.454,0.493,0.775,1.159,0.861,1.98c0.073,0.812-0.099,1.57-0.45,2.213c-0.776,1.44-1.93,1.807-3.104,2.058
	c-0.991,0.029-2.062-0.184-2.884-1.048C231.596,20.671,231.291,20.004,231.215,19.231z M238.69,39.219
	c-0.534,1.421-1.641,1.996-2.659,2.363c-0.858,0.13-1.783,0.068-2.586-0.464c-0.63-0.391-1.193-1.111-1.405-2.073
	c-0.166-0.739-0.069-1.531,0.192-2.198c0.58-1.411,1.737-1.938,2.765-2.295c0.889-0.097,1.764-0.058,2.586,0.551
	c0.573,0.401,1.074,1.092,1.276,1.986C239.012,37.808,238.956,38.576,238.69,39.219z M248.517,29.638
	c-0.563,1.247-1.602,1.715-2.546,2.049c-0.984,0.184-2.068,0.116-2.961-0.58c-0.526-0.406-0.998-1.043-1.16-1.928
	c-0.146-0.749-0.043-1.474,0.245-2.111c0.594-1.362,1.761-1.855,2.795-2.155c0.929-0.063,1.823-0.092,2.679,0.565
	c0.557,0.43,1.021,1.097,1.188,1.985C248.898,28.208,248.799,28.991,248.517,29.638z"/>
</svg>
